Topmarks-Light.ufo
<glyph name="exclam" format="1">
  <advance width="625.0"/>
  <unicode hex="0021"/>
  <outline>
    <contour>
      <point x="335.8" y="-7.2" type="curve" smooth="yes"/>
      <point x="383.4" y="-7.2"/>
      <point x="436.4" y="27.2"/>
      <point x="436.4" y="91.0" type="curve" smooth="yes"/>
      <point x="436.4" y="142.6"/>
      <point x="403.6" y="190.2"/>
      <point x="336.8" y="190.2" type="curve" smooth="yes"/>
      <point x="289.2" y="190.2"/>
      <point x="236.2" y="155.6"/>
      <point x="236.2" y="91.6" type="curve" smooth="yes"/>
      <point x="236.2" y="40.2"/>
      <point x="269.2" y="-7.2"/>
    </contour>
    <contour>
      <point x="293.6" y="344.0" type="line"/>
      <point x="371.0" y="344.0" type="line"/>
      <point x="412.2" y="1406.4" type="line"/>
      <point x="250.6" y="1406.4" type="line"/>
    </contour>
  </outline>
</glyph>
<glyph name="quotedbl" format="1">
  <advance width="610.4"/>
  <unicode hex="0022"/>
  <outline>
    <contour>
      <point x="131.4" y="844.4" type="line"/>
      <point x="258.0" y="844.4" type="line"/>
      <point x="258.0" y="1290.4" type="line"/>
      <point x="96.8" y="1290.4" type="line"/>
    </contour>
    <contour>
      <point x="410.4" y="844.4" type="line"/>
      <point x="536.0" y="844.4" type="line"/>
      <point x="536.0" y="1290.4" type="line"/>
      <point x="375.6" y="1290.4" type="line"/>
    </contour>
  </outline>
</glyph>
<glyph name="asterisk" format="1">
  <advance width="1123.8"/>
  <unicode hex="002A"/>
  <outline>
    <contour>
      <point x="763.8" y="630.8" type="line"/>
      <point x="885.4" y="701.2" type="line"/>
      <point x="691.4" y="943.4" type="line"/>
      <point x="945.2" y="1028.4" type="line"/>
      <point x="883.6" y="1149.2" type="line"/>
      <point x="656.6" y="1032.4" type="line"/>
      <point x="656.6" y="1320.0" type="line"/>
      <point x="519.6" y="1320.0" type="line"/>
      <point x="532.2" y="1223.4"/>
      <point x="546.6" y="1124.0"/>
      <point x="559.2" y="1027.6" type="curve"/>
      <point x="285.0" y="1146.2" type="line"/>
      <point x="264.8" y="1016.0" type="line"/>
      <point x="528.2" y="940.6" type="line"/>
      <point x="344.0" y="711.0" type="line"/>
      <point x="463.6" y="638.6" type="line"/>
      <point x="611.2" y="887.6" type="line"/>
    </contour>
  </outline>
</glyph>
<glyph name="plus" format="1">
  <advance width="984.2"/>
  <unicode hex="002B"/>
  <outline>
    <contour>
      <point x="482.6" y="52.6" type="line"/>
      <point x="626.4" y="52.6" type="line"/>
      <point x="626.4" y="461.0" type="line"/>
      <point x="1061.6" y="461.0" type="line"/>
      <point x="1061.6" y="595.0" type="line"/>
      <point x="628.4" y="595.0" type="line"/>
      <point x="628.4" y="1003.2" type="line"/>
      <point x="485.6" y="1003.2" type="line"/>
      <point x="485.6" y="595.0" type="line"/>
      <point x="50.2" y="595.0" type="line"/>
      <point x="50.2" y="461.0" type="line"/>
      <point x="482.6" y="461.0" type="line"/>
    </contour>
  </outline>
</glyph>
<glyph name="comma" format="1">
  <advance width="543.6"/>
  <unicode hex="002C"/>
  <outline>
    <contour>
      <point x="82.0" y="-241.0" type="line"/>
      <point x="202.4" y="-241.0" type="line"/>
      <point x="360.0" y="205.8" type="line"/>
      <point x="185.4" y="205.8" type="line"/>
    </contour>
  </outline>
</glyph>
<glyph name="hyphen" format="1">
  <advance width="1240.8"/>
  <unicode hex="002D"/>
  <outline>
    <contour>
      <point x="214.2" y="633.0" type="line"/>
      <point x="1026.6" y="633.0" type="line"/>
      <point x="1026.6" y="771.0" type="line"/>
      <point x="214.2" y="771.0" type="line"/>
    </contour>
  </outline>
</glyph>
<glyph name="period" format="1">
  <advance width="457.8"/>
  <unicode hex="002E"/>
  <outline>
    <contour>
      <point x="238.0" y="-19.2" type="curve" smooth="yes"/>
      <point x="283.6" y="-19.2"/>
      <point x="334.6" y="14.4"/>
      <point x="334.6" y="74.8" type="curve" smooth="yes"/>
      <point x="334.6" y="124.2"/>
      <point x="302.8" y="169.6"/>
      <point x="239.2" y="169.6" type="curve" smooth="yes"/>
      <point x="193.6" y="169.6"/>
      <point x="142.6" y="136.2"/>
      <point x="142.6" y="75.4" type="curve" smooth="yes"/>
      <point x="142.6" y="26.0"/>
      <point x="174.4" y="-19.2"/>
    </contour>
  </outline>
</glyph>
<glyph name="slash" format="1">
  <advance width="786.8"/>
  <unicode hex="002F"/>
  <outline>
    <contour>
      <point x="53.8" y="75.6" type="line"/>
      <point x="216.8" y="75.6" type="line"/>
      <point x="858.6" y="1491.2" type="line"/>
      <point x="691.6" y="1491.2" type="line"/>
    </contour>
  </outline>
</glyph>
<glyph name="one" format="1">
  <advance width="1299.8"/>
  <unicode hex="0031"/>
  <outline>
    <contour>
      <point x="701.0" y="0.0" type="line"/>
      <point x="853.8" y="0.0" type="line"/>
      <point x="853.8" y="1457.6" type="line"/>
      <point x="708.2" y="1457.6" type="line"/>
      <point x="640.0" y="1406.6"/>
      <point x="521.8" y="1333.2"/>
      <point x="405.8" y="1280.0" type="curve"/>
      <point x="443.0" y="1157.0" type="line"/>
      <point x="549.0" y="1201.0"/>
      <point x="635.0" y="1249.2"/>
      <point x="701.0" y="1299.0" type="curve"/>
    </contour>
  </outline>
</glyph>
<glyph name="two" format="1">
  <advance width="1238.4"/>
  <unicode hex="0032"/>
  <outline>
    <contour>
      <point x="135.8" y="0.0" type="line"/>
      <point x="1084.4" y="0.0" type="line"/>
      <point x="1084.4" y="134.0" type="line"/>
      <point x="327.0" y="134.0" type="line"/>
      <point x="449.4" y="246.8"/>
      <point x="511.4" y="303.4"/>
      <point x="633.8" y="424.6" type="curve" smooth="yes"/>
      <point x="781.6" y="572.6"/>
      <point x="1077.6" y="802.0"/>
      <point x="1077.6" y="1095.6" type="curve" smooth="yes"/>
      <point x="1077.6" y="1327.8"/>
      <point x="886.0" y="1485.8"/>
      <point x="639.6" y="1485.8" type="curve" smooth="yes"/>
      <point x="403.8" y="1485.8"/>
      <point x="242.8" y="1374.4"/>
      <point x="191.2" y="1205.6" type="curve"/>
      <point x="274.4" y="1116.6" type="line"/>
      <point x="322.2" y="1247.2"/>
      <point x="435.6" y="1347.4"/>
      <point x="628.8" y="1347.4" type="curve" smooth="yes"/>
      <point x="788.2" y="1347.4"/>
      <point x="920.4" y="1247.2"/>
      <point x="920.4" y="1088.8" type="curve" smooth="yes"/>
      <point x="920.4" y="892.8"/>
      <point x="735.2" y="723.4"/>
      <point x="641.4" y="624.2" type="curve" smooth="yes"/>
      <point x="460.2" y="432.2"/>
      <point x="324.2" y="318.0"/>
      <point x="135.8" y="138.0" type="curve"/>
    </contour>
  </outline>
</glyph>
<glyph name="three" format="1">
  <advance width="1246.8"/>
  <unicode hex="0033"/>
  <outline>
    <contour>
      <point x="587.0" y="-25.6" type="curve" smooth="yes"/>
      <point x="878.0" y="-25.6"/>
      <point x="1140.8" y="117.0"/>
      <point x="1140.8" y="401.6" type="curve" smooth="yes"/>
      <point x="1140.8" y="613.0"/>
      <point x="990.6" y="723.6"/>
      <point x="786.8" y="762.8" type="curve"/>
      <point x="962.8" y="809.6"/>
      <point x="1100.4" y="914.6"/>
      <point x="1100.4" y="1116.6" type="curve" smooth="yes"/>
      <point x="1100.4" y="1359.4"/>
      <point x="877.4" y="1485.6"/>
      <point x="626.0" y="1485.6" type="curve" smooth="yes"/>
      <point x="408.4" y="1485.6"/>
      <point x="243.4" y="1392.8"/>
      <point x="193.2" y="1238.4" type="curve"/>
      <point x="285.8" y="1159.8" type="line"/>
      <point x="350.0" y="1274.8"/>
      <point x="449.6" y="1347.6"/>
      <point x="624.4" y="1347.6" type="curve" smooth="yes"/>
      <point x="794.4" y="1347.6"/>
      <point x="921.2" y="1286.4"/>
      <point x="921.2" y="1121.4" type="curve" smooth="yes"/>
      <point x="921.2" y="893.8"/>
      <point x="761.4" y="828.6"/>
      <point x="520.2" y="828.6" type="curve" smooth="yes"/>
      <point x="454.8" y="828.6" type="line"/>
      <point x="456.8" y="693.8" type="line"/>
      <point x="536.2" y="695.8" type="line" smooth="yes"/>
      <point x="771.8" y="704.2"/>
      <point x="967.6" y="632.0"/>
      <point x="967.6" y="404.6" type="curve" smooth="yes"/>
      <point x="967.6" y="200.8"/>
      <point x="795.6" y="112.4"/>
      <point x="597.2" y="112.4" type="curve" smooth="yes"/>
      <point x="409.0" y="112.4"/>
      <point x="290.2" y="194.6"/>
      <point x="257.8" y="324.2" type="curve"/>
      <point x="174.4" y="236.6" type="line"/>
      <point x="200.2" y="57.2"/>
      <point x="371.8" y="-25.6"/>
    </contour>
  </outline>
</glyph>
<glyph name="four" format="1">
  <advance width="1238.4"/>
  <unicode hex="0034"/>
  <outline>
    <contour>
      <point x="792.0" y="0.0" type="line"/>
      <point x="948.2" y="0.0" type="line"/>
      <point x="948.2" y="356.8" type="line"/>
      <point x="1168.0" y="356.8" type="line"/>
      <point x="1168.0" y="475.6" type="line"/>
      <point x="948.2" y="475.6" type="line"/>
      <point x="948.2" y="1457.6" type="line"/>
      <point x="753.8" y="1457.6" type="line"/>
      <point x="146.6" y="467.4" type="line"/>
      <point x="146.6" y="356.8" type="line"/>
      <point x="792.0" y="356.8" type="line"/>
    </contour>
    <contour>
      <point x="305.8" y="475.6" type="line"/>
      <point x="708.0" y="1157.2" type="line"/>
      <point x="792.0" y="1303.0" type="line"/>
      <point x="792.0" y="475.6" type="line"/>
    </contour>
  </outline>
</glyph>
<glyph name="five" format="1">
  <advance width="1246.8"/>
  <unicode hex="0035"/>
  <outline>
    <contour>
      <point x="178.4" y="176.0" type="line"/>
      <point x="247.0" y="60.8"/>
      <point x="375.4" y="-21.0"/>
      <point x="573.0" y="-21.2" type="curve" smooth="yes"/>
      <point x="875.2" y="-21.8"/>
      <point x="1093.0" y="132.0"/>
      <point x="1093.0" y="452.2" type="curve" smooth="yes"/>
      <point x="1093.0" y="689.0"/>
      <point x="936.0" y="900.4"/>
      <point x="614.4" y="900.2" type="curve" smooth="yes"/>
      <point x="510.2" y="900.0"/>
      <point x="439.2" y="875.6"/>
      <point x="369.8" y="840.6" type="curve"/>
      <point x="383.6" y="1332.2" type="line"/>
      <point x="1026.0" y="1332.2" type="line"/>
      <point x="1026.0" y="1466.4" type="line"/>
      <point x="234.4" y="1466.4" type="line"/>
      <point x="234.4" y="657.6" type="line"/>
      <point x="410.6" y="664.8" type="line"/>
      <point x="443.8" y="722.0"/>
      <point x="517.6" y="762.8"/>
      <point x="619.4" y="763.0" type="curve" smooth="yes"/>
      <point x="809.4" y="763.4"/>
      <point x="929.2" y="650.2"/>
      <point x="929.2" y="455.2" type="curve" smooth="yes"/>
      <point x="929.2" y="263.0"/>
      <point x="805.4" y="105.6"/>
      <point x="571.8" y="105.4" type="curve" smooth="yes"/>
      <point x="412.0" y="105.2"/>
      <point x="314.6" y="181.0"/>
      <point x="257.6" y="276.2" type="curve"/>
    </contour>
  </outline>
</glyph>
<glyph name="six" format="1">
  <advance width="1246.8"/>
  <unicode hex="0036"/>
  <outline>
    <contour>
      <point x="644.8" y="-23.0" type="curve" smooth="yes"/>
      <point x="940.6" y="-23.0"/>
      <point x="1147.0" y="187.0"/>
      <point x="1147.0" y="468.2" type="curve" smooth="yes"/>
      <point x="1147.0" y="740.0"/>
      <point x="982.4" y="948.6"/>
      <point x="666.6" y="948.6" type="curve" smooth="yes"/>
      <point x="555.6" y="948.6"/>
      <point x="354.6" y="890.2"/>
      <point x="285.4" y="752.8" type="curve"/>
      <point x="328.8" y="1062.8"/>
      <point x="539.8" y="1306.4"/>
      <point x="900.2" y="1345.6" type="curve"/>
      <point x="872.4" y="1466.6" type="line"/>
      <point x="267.0" y="1390.4"/>
      <point x="101.8" y="900.4"/>
      <point x="131.0" y="509.4" type="curve" smooth="yes"/>
      <point x="150.0" y="262.0"/>
      <point x="270.0" y="-23.0"/>
    </contour>
    <contour>
      <point x="644.6" y="118.8" type="curve" smooth="yes"/>
      <point x="391.0" y="118.8"/>
      <point x="287.4" y="298.4"/>
      <point x="287.4" y="474.4" type="curve" smooth="yes"/>
      <point x="287.4" y="676.0"/>
      <point x="425.0" y="823.6"/>
      <point x="652.6" y="824.8" type="curve" smooth="yes"/>
      <point x="928.8" y="826.0"/>
      <point x="993.8" y="633.6"/>
      <point x="993.8" y="465.2" type="curve" smooth="yes"/>
      <point x="993.8" y="255.4"/>
      <point x="873.2" y="118.8"/>
    </contour>
  </outline>
</glyph>
<glyph name="seven" format="1">
  <advance width="1246.8"/>
  <unicode hex="0037"/>
  <outline>
    <contour>
      <point x="355.0" y="0.0" type="line"/>
      <point x="523.8" y="0.0" type="line"/>
      <point x="1121.8" y="1391.6" type="line"/>
      <point x="1121.8" y="1464.6" type="line"/>
      <point x="150.8" y="1464.6" type="line"/>
      <point x="150.8" y="1330.4" type="line"/>
      <point x="944.4" y="1330.4" type="line"/>
    </contour>
  </outline>
</glyph>
<glyph name="eight" format="1">
  <advance width="1246.6"/>
  <unicode hex="0038"/>
  <outline>
    <contour>
      <point x="618.2" y="-23.2" type="curve" smooth="yes"/>
      <point x="891.356161232" y="-23.2"/>
      <point x="1107.2" y="102.8"/>
      <point x="1107.2" y="377.6" type="curve" smooth="yes"/>
      <point x="1107.2" y="590.2"/>
      <point x="969.4" y="715.6"/>
      <point x="782.6" y="768.6" type="curve"/>
      <point x="947.0" y="817.6"/>
      <point x="1072.2" y="929.2"/>
      <point x="1072.2" y="1125.6" type="curve" smooth="yes"/>
      <point x="1072.2" y="1354.8"/>
      <point x="879.4" y="1485.6"/>
      <point x="618.2" y="1485.6" type="curve" smooth="yes"/>
      <point x="391.2" y="1485.6"/>
      <point x="164.0" y="1388.6"/>
      <point x="164.0" y="1125.6" type="curve" smooth="yes"/>
      <point x="164.0" y="931.2"/>
      <point x="289.8" y="817.6"/>
      <point x="454.2" y="768.6" type="curve"/>
      <point x="267.0" y="715.6"/>
      <point x="129.4" y="590.2"/>
      <point x="129.4" y="377.6" type="curve" smooth="yes"/>
      <point x="129.4" y="134.6"/>
      <point x="334.123797057" y="-23.2"/>
    </contour>
    <contour>
      <point x="617.2" y="105.6" type="curve" smooth="yes"/>
      <point x="430.0" y="105.6"/>
      <point x="287.8" y="203.8"/>
      <point x="287.8" y="391.8" type="curve" smooth="yes"/>
      <point x="287.8" y="573.6"/>
      <point x="440.8" y="669.0"/>
      <point x="617.2" y="704.6" type="curve"/>
      <point x="780.6" y="671.0"/>
      <point x="947.0" y="588.2"/>
      <point x="947.0" y="391.8" type="curve" smooth="yes"/>
      <point x="947.0" y="211.8"/>
      <point x="814.235659927" y="105.6"/>
    </contour>
    <contour>
      <point x="617.2" y="835.4" type="curve"/>
      <point x="454.2" y="865.8"/>
      <point x="319.0" y="942.6"/>
      <point x="319.0" y="1120.4" type="curve" smooth="yes"/>
      <point x="319.0" y="1270.2"/>
      <point x="442.6" y="1364.0"/>
      <point x="617.2" y="1364.0" type="curve" smooth="yes"/>
      <point x="779.4" y="1364.0"/>
      <point x="916.0" y="1284.2"/>
      <point x="916.0" y="1120.4" type="curve" smooth="yes"/>
      <point x="916.0" y="942.6"/>
      <point x="780.6" y="865.8"/>
    </contour>
  </outline>
</glyph>
<glyph name="nine" format="1">
  <advance width="1246.8"/>
  <unicode hex="0039"/>
  <outline>
    <contour>
      <point x="522.6" y="-64.8" type="line"/>
      <point x="1009.0" y="618.0" type="line" smooth="yes"/>
      <point x="1101.6" y="747.6"/>
      <point x="1140.2" y="867.2"/>
      <point x="1140.2" y="993.4" type="curve" smooth="yes"/>
      <point x="1140.2" y="1230.0"/>
      <point x="1000.8" y="1485.6"/>
      <point x="626.0" y="1485.6" type="curve" smooth="yes"/>
      <point x="330.2" y="1485.6"/>
      <point x="124.2" y="1275.8"/>
      <point x="124.2" y="997.2" type="curve" smooth="yes"/>
      <point x="124.2" y="725.2"/>
      <point x="301.4" y="516.8"/>
      <point x="615.0" y="516.8" type="curve" smooth="yes"/>
      <point x="735.4" y="516.8"/>
      <point x="820.2" y="580.8"/>
      <point x="827.4" y="586.8" type="curve"/>
      <point x="400.8" y="3.8" type="line"/>
    </contour>
    <contour>
      <point x="631.6" y="641.0" type="curve" smooth="yes"/>
      <point x="355.4" y="641.0"/>
      <point x="283.2" y="824.8"/>
      <point x="283.2" y="993.2" type="curve" smooth="yes"/>
      <point x="283.2" y="1210.0"/>
      <point x="410.0" y="1346.6"/>
      <point x="638.6" y="1346.6" type="curve" smooth="yes"/>
      <point x="892.2" y="1346.6"/>
      <point x="983.6" y="1206.8"/>
      <point x="983.6" y="991.2" type="curve" smooth="yes"/>
      <point x="983.6" y="789.4"/>
      <point x="877.4" y="641.0"/>
    </contour>
  </outline>
</glyph>
<glyph name="semicolon" format="1">
  <advance width="457.8"/>
  <unicode hex="003B"/>
  <outline>
    <contour>
      <point x="84.8" y="-217.0" type="line"/>
      <point x="211.2" y="-217.0" type="line"/>
      <point x="368.6" y="229.8" type="line"/>
      <point x="187.0" y="229.8" type="line"/>
    </contour>
    <contour>
      <point x="141.6" y="811.8" type="line"/>
      <point x="351.0" y="811.8" type="line"/>
      <point x="351.0" y="1014.4" type="line"/>
      <point x="130.6" y="1014.4" type="line"/>
    </contour>
  </outline>
</glyph>
<glyph name="equal" format="1">
  <advance width="1402.4"/>
  <unicode hex="003D"/>
  <outline>
    <contour>
      <point x="168.2" y="239.8" type="line"/>
      <point x="1218.4" y="239.8" type="line"/>
      <point x="1218.4" y="377.0" type="line"/>
      <point x="168.2" y="377.0" type="line"/>
    </contour>
    <contour>
      <point x="167.2" y="646.4" type="line"/>
      <point x="1217.2" y="646.4" type="line"/>
      <point x="1217.2" y="784.2" type="line"/>
      <point x="167.2" y="784.2" type="line"/>
    </contour>
  </outline>
</glyph>
<glyph name="greater" format="1">
  <advance width="1458.8"/>
  <unicode hex="003E"/>
  <outline>
    <contour>
      <point x="201.6" y="49.2" type="line"/>
      <point x="1212.4" y="496.6" type="line"/>
      <point x="1212.4" y="585.6" type="line"/>
      <point x="206.4" y="1070.0" type="line"/>
      <point x="206.4" y="918.0" type="line"/>
      <point x="991.2" y="546.6" type="line"/>
      <point x="201.6" y="203.4" type="line"/>
    </contour>
  </outline>
</glyph>
<glyph name="question" format="1">
  <advance width="1046.8"/>
  <unicode hex="003F"/>
  <outline>
    <contour>
      <point x="357.0" y="361.8" type="curve"/>
      <point x="484.2" y="361.8" type="line"/>
      <point x="472.0" y="663.2"/>
      <point x="898.4" y="758.046464646"/>
      <point x="898.4" y="1134.2" type="curve" smooth="yes"/>
      <point x="898.4" y="1332.2"/>
      <point x="754.0" y="1485.6"/>
      <point x="457.2" y="1485.6" type="curve" smooth="yes"/>
      <point x="350.6" y="1485.6"/>
      <point x="259.2" y="1452.6"/>
      <point x="183.8" y="1414.4" type="curve"/>
      <point x="177.6" y="1275.4" type="line"/>
      <point x="253.89133817" y="1321.1332403"/>
      <point x="365.829660547" y="1349.88171521"/>
      <point x="472.841387776" y="1348.06620522" type="curve" smooth="yes"/>
      <point x="619.941779874" y="1345.55277703"/>
      <point x="751.4" y="1285.17670045"/>
      <point x="751.4" y="1130.2" type="curve" smooth="yes"/>
      <point x="751.4" y="756.051685598"/>
      <point x="357.0" y="703.4"/>
    </contour>
    <contour>
      <point x="429.4" y="0.0" type="curve" smooth="yes"/>
      <point x="476.4" y="0.0"/>
      <point x="528.4" y="34.2"/>
      <point x="528.4" y="96.4" type="curve" smooth="yes"/>
      <point x="528.4" y="147.4"/>
      <point x="495.4" y="193.6"/>
      <point x="430.2" y="193.6" type="curve" smooth="yes"/>
      <point x="383.2" y="193.6"/>
      <point x="331.4" y="159.4"/>
      <point x="331.4" y="97.2" type="curve" smooth="yes"/>
      <point x="331.4" y="46.2"/>
      <point x="364.4" y="0.0"/>
    </contour>
  </outline>
</glyph>
<glyph name="at" format="1">
  <advance width="1883.4"/>
  <unicode hex="0040"/>
  <outline>
    <contour>
      <point x="958.8" y="-108.6" type="curve" smooth="yes"/>
      <point x="1237.0" y="-108.6"/>
      <point x="1447.6" y="-7.4"/>
      <point x="1566.2" y="140.4" type="curve"/>
      <point x="1488.2" y="196.6" type="line"/>
      <point x="1366.6" y="83.6"/>
      <point x="1190.6" y="2.0"/>
      <point x="958.6" y="2.0" type="curve" smooth="yes"/>
      <point x="550.0" y="2.0"/>
      <point x="264.8" y="284.4"/>
      <point x="264.8" y="676.6" type="curve" smooth="yes"/>
      <point x="264.8" y="1053.4"/>
      <point x="555.2" y="1369.4"/>
      <point x="955.2" y="1369.4" type="curve" smooth="yes"/>
      <point x="1324.8" y="1369.4"/>
      <point x="1609.2" y="1144.2"/>
      <point x="1609.2" y="797.2" type="curve" smooth="yes"/>
      <point x="1609.2" y="617.0"/>
      <point x="1489.2" y="343.2"/>
      <point x="1293.4" y="343.2" type="curve" smooth="yes"/>
      <point x="1231.6" y="343.2"/>
      <point x="1212.0" y="371.8"/>
      <point x="1212.0" y="427.0" type="curve" smooth="yes"/>
      <point x="1212.0" y="507.6"/>
      <point x="1267.2" y="704.2"/>
      <point x="1359.0" y="1108.6" type="curve"/>
      <point x="1220.6" y="1108.6" type="line"/>
      <point x="1206.8" y="1023.6" type="line"/>
      <point x="1173.6" y="1090.0"/>
      <point x="1089.4" y="1139.6"/>
      <point x="979.6" y="1139.6" type="curve" smooth="yes"/>
      <point x="721.2" y="1139.6"/>
      <point x="494.6" y="870.6"/>
      <point x="494.6" y="607.0" type="curve" smooth="yes"/>
      <point x="494.6" y="459.8"/>
      <point x="573.6" y="258.0"/>
      <point x="810.8" y="258.0" type="curve" smooth="yes"/>
      <point x="929.0" y="258.0"/>
      <point x="1006.8" y="314.0"/>
      <point x="1060.8" y="375.0" type="curve"/>
      <point x="1083.4" y="270.2"/>
      <point x="1151.0" y="219.8"/>
      <point x="1276.0" y="219.8" type="curve" smooth="yes"/>
      <point x="1535.2" y="219.8"/>
      <point x="1752.6" y="515.6"/>
      <point x="1752.6" y="792.2" type="curve" smooth="yes"/>
      <point x="1752.6" y="1197.4"/>
      <point x="1398.8" y="1477.8"/>
      <point x="960.8" y="1477.8" type="curve" smooth="yes"/>
      <point x="492.8" y="1477.8"/>
      <point x="130.8" y="1124.2"/>
      <point x="130.8" y="680.0" type="curve" smooth="yes"/>
      <point x="130.8" y="225.8"/>
      <point x="486.0" y="-108.6"/>
    </contour>
    <contour>
      <point x="819.0" y="378.4" type="curve" smooth="yes"/>
      <point x="694.8" y="378.4"/>
      <point x="635.4" y="462.2"/>
      <point x="635.4" y="577.6" type="curve" smooth="yes"/>
      <point x="635.4" y="762.8"/>
      <point x="765.4" y="1013.2"/>
      <point x="971.6" y="1013.2" type="curve" smooth="yes"/>
      <point x="1097.6" y="1013.2"/>
      <point x="1140.8" y="937.6"/>
      <point x="1140.8" y="821.0" type="curve" smooth="yes"/>
      <point x="1140.8" y="635.6"/>
      <point x="1021.2" y="378.4"/>
    </contour>
  </outline>
</glyph>
<glyph name="B" format="1">
  <advance width="1258.2"/>
  <unicode hex="0042"/>
  <outline>
    <contour>
      <point x="170.8" y="0.0" type="line"/>
      <point x="632.0" y="0.0" type="line" smooth="yes"/>
      <point x="965.6" y="0.0"/>
      <point x="1187.0" y="111.4"/>
      <point x="1187.0" y="399.6" type="curve" smooth="yes"/>
      <point x="1187.0" y="623.4"/>
      <point x="1078.0" y="728.0"/>
      <point x="882.8" y="767.8" type="curve"/>
      <point x="1041.0" y="823.0"/>
      <point x="1116.8" y="917.6"/>
      <point x="1116.8" y="1106.0" type="curve" smooth="yes"/>
      <point x="1116.8" y="1359.4"/>
      <point x="932.8" y="1457.6"/>
      <point x="566.0" y="1457.6" type="curve" smooth="yes"/>
      <point x="170.8" y="1457.6" type="line"/>
    </contour>
    <contour>
      <point x="325.4" y="137.4" type="line"/>
      <point x="325.4" y="689.4" type="line"/>
      <point x="574.0" y="689.4" type="line" smooth="yes"/>
      <point x="893.4" y="689.4"/>
      <point x="1017.8" y="604.4"/>
      <point x="1017.8" y="400.6" type="curve" smooth="yes"/>
      <point x="1017.8" y="211.6"/>
      <point x="898.4" y="137.4"/>
      <point x="626.2" y="137.4" type="curve" smooth="yes"/>
    </contour>
    <contour>
      <point x="325.4" y="821.8" type="line"/>
      <point x="325.4" y="1320.0" type="line"/>
      <point x="566.0" y="1320.0" type="line" smooth="yes"/>
      <point x="844.8" y="1320.0"/>
      <point x="948.8" y="1252.6"/>
      <point x="948.8" y="1080.0" type="curve" smooth="yes"/>
      <point x="948.8" y="896.2"/>
      <point x="835.6" y="821.8"/>
      <point x="544.0" y="821.8" type="curve" smooth="yes"/>
    </contour>
  </outline>
</glyph>
<glyph name="F" format="1">
  <advance width="1082.4"/>
  <unicode hex="0046"/>
  <outline>
    <contour>
      <point x="170.8" y="0.0" type="line"/>
      <point x="325.4" y="0.0" type="line"/>
      <point x="325.4" y="667.6" type="line"/>
      <point x="970.6" y="667.6" type="line"/>
      <point x="970.6" y="806.6" type="line"/>
      <point x="325.4" y="806.6" type="line"/>
      <point x="325.4" y="1320.0" type="line"/>
      <point x="1004.8" y="1320.0" type="line"/>
      <point x="1004.8" y="1457.6" type="line"/>
      <point x="170.8" y="1457.6" type="line"/>
    </contour>
  </outline>
</glyph>
<glyph name="N" format="1">
  <advance width="1544.8"/>
  <unicode hex="004E"/>
  <outline>
    <contour>
      <point x="170.8" y="0.0" type="line"/>
      <point x="331.0" y="0.0" type="line"/>
      <point x="331.0" y="1262.2" type="line"/>
      <point x="393.2" y="1145.8" type="line"/>
      <point x="1178.0" y="0.0" type="line"/>
      <point x="1374.0" y="0.0" type="line"/>
      <point x="1374.0" y="1457.6" type="line"/>
      <point x="1215.0" y="1457.6" type="line"/>
      <point x="1215.0" y="195.4" type="line"/>
      <point x="1146.8" y="310.4" type="line"/>
      <point x="365.0" y="1457.6" type="line"/>
      <point x="170.8" y="1457.6" type="line"/>
    </contour>
  </outline>
</glyph>
<glyph name="O" format="1">
  <advance width="1641.8"/>
  <unicode hex="004F"/>
  <outline>
    <contour>
      <point x="821.0" y="112.4" type="curve" smooth="yes"/>
      <point x="542.4" y="112.4"/>
      <point x="271.8" y="314.4"/>
      <point x="271.8" y="730.0" type="curve" smooth="yes"/>
      <point x="271.8" y="1144.4"/>
      <point x="542.4" y="1347.6"/>
      <point x="821.0" y="1347.6" type="curve" smooth="yes"/>
      <point x="1099.6" y="1347.6"/>
      <point x="1370.0" y="1144.4"/>
      <point x="1370.0" y="730.0" type="curve" smooth="yes"/>
      <point x="1370.0" y="314.4"/>
      <point x="1099.6" y="112.4"/>
    </contour>
    <contour>
      <point x="821.0" y="-25.6" type="curve" smooth="yes"/>
      <point x="1302.0" y="-25.6"/>
      <point x="1536.2" y="348.0"/>
      <point x="1536.2" y="728.4" type="curve" smooth="yes"/>
      <point x="1536.2" y="1110.8"/>
      <point x="1302.0" y="1485.6"/>
      <point x="821.0" y="1485.6" type="curve" smooth="yes"/>
      <point x="340.0" y="1485.6"/>
      <point x="105.6" y="1110.8"/>
      <point x="105.6" y="728.4" type="curve" smooth="yes"/>
      <point x="105.6" y="348.0"/>
      <point x="340.0" y="-25.6"/>
    </contour>
  </outline>
</glyph>
<glyph name="P" format="1">
  <advance width="1217.4"/>
  <unicode hex="0050"/>
  <outline>
    <contour>
      <point x="170.8" y="0.0" type="line"/>
      <point x="324.0" y="0.0" type="line"/>
      <point x="324.0" y="597.6" type="line"/>
      <point x="571.6" y="597.6" type="line" smooth="yes"/>
      <point x="947.6" y="597.6"/>
      <point x="1148.2" y="745.8"/>
      <point x="1148.2" y="1023.4" type="curve" smooth="yes"/>
      <point x="1148.2" y="1316.0"/>
      <point x="975.2" y="1457.6"/>
      <point x="546.6" y="1457.6" type="curve" smooth="yes"/>
      <point x="170.8" y="1457.6" type="line"/>
    </contour>
    <contour>
      <point x="324.0" y="735.8" type="line"/>
      <point x="324.0" y="1320.0" type="line"/>
      <point x="570.6" y="1320.0" type="line" smooth="yes"/>
      <point x="871.2" y="1320.0"/>
      <point x="981.0" y="1222.4"/>
      <point x="981.0" y="1021.4" type="curve" smooth="yes"/>
      <point x="981.0" y="835.4"/>
      <point x="845.8" y="735.8"/>
      <point x="590.6" y="735.8" type="curve" smooth="yes"/>
    </contour>
  </outline>
</glyph>
<glyph name="W" format="1">
  <advance width="2069.8"/>
  <unicode hex="0057"/>
  <outline>
    <contour>
      <point x="1429.8" y="0.0" type="line"/>
      <point x="1640.0" y="0.0" type="line"/>
      <point x="2057.4" y="1457.6" type="line"/>
      <point x="1891.2" y="1457.6" type="line"/>
      <point x="1573.8" y="296.0" type="line"/>
      <point x="1537.8" y="150.8" type="line"/>
      <point x="1498.8" y="292.0" type="line"/>
      <point x="1132.6" y="1457.6" type="line"/>
      <point x="951.2" y="1457.6" type="line"/>
      <point x="581.8" y="296.0" type="line"/>
      <point x="539.0" y="149.8" type="line"/>
      <point x="506.8" y="296.0" type="line"/>
      <point x="184.6" y="1457.6" type="line"/>
      <point x="12.4" y="1457.6" type="line"/>
      <point x="429.6" y="1.2" type="line"/>
      <point x="641.0" y="1.2" type="line"/>
      <point x="1036.4" y="1286.2" type="line"/>
    </contour>
  </outline>
</glyph>
<glyph name="X" format="1">
  <advance width="1286.2"/>
  <unicode hex="0058"/>
  <outline>
    <contour>
      <point x="14.6" y="0.0" type="line"/>
      <point x="204.6" y="0.0" type="line"/>
      <point x="638.2" y="635.4" type="line"/>
      <point x="1078.4" y="0.0" type="line"/>
      <point x="1265.4" y="0.0" type="line"/>
      <point x="744.8" y="747.0" type="line"/>
      <point x="1250.0" y="1457.6" type="line"/>
      <point x="1069.4" y="1457.6" type="line"/>
      <point x="649.8" y="843.8" type="line"/>
      <point x="244.4" y="1457.6" type="line"/>
      <point x="51.6" y="1457.6" type="line"/>
      <point x="545.6" y="739.6" type="line"/>
    </contour>
  </outline>
</glyph>
<glyph name="Y" format="1">
  <advance width="1248.8"/>
  <unicode hex="0059"/>
  <outline>
    <contour>
      <point x="544.0" y="0.0" type="line"/>
      <point x="696.6" y="0.0" type="line"/>
      <point x="696.6" y="585.6" type="line"/>
      <point x="1246.0" y="1457.6" type="line"/>
      <point x="1068.6" y="1457.6" type="line"/>
      <point x="623.4" y="714.8" type="line"/>
      <point x="178.0" y="1457.6" type="line"/>
      <point x="2.8" y="1457.6" type="line"/>
      <point x="544.0" y="582.4" type="line"/>
    </contour>
  </outline>
</glyph>
<glyph name="asciicircum" format="1">
  <advance width="1497.2"/>
  <unicode hex="005E"/>
  <outline>
    <contour>
      <point x="201.8" y="546.0" type="line"/>
      <point x="347.8" y="546.0" type="line"/>
      <point x="732.4" y="1276.8" type="line"/>
      <point x="1128.6" y="546.0" type="line"/>
      <point x="1273.8" y="546.0" type="line"/>
      <point x="784.2" y="1428.8" type="line"/>
      <point x="683.2" y="1428.8" type="line"/>
    </contour>
  </outline>
</glyph>
<glyph name="underscore" format="1">
  <advance width="1002.0"/>
  <unicode hex="005F"/>
  <outline>
    <contour>
      <point x="-4.0" y="-231.4" type="line"/>
      <point x="1000.0" y="-231.4" type="line"/>
      <point x="1000.0" y="-103.4" type="line"/>
      <point x="-4.0" y="-103.4" type="line"/>
    </contour>
  </outline>
</glyph>
<glyph name="a" format="1">
  <advance width="1188.8"/>
  <unicode hex="0061"/>
  <outline>
    <contour>
      <point x="500.4" y="-22.0" type="curve" smooth="yes"/>
      <point x="662.0" y="-22.0"/>
      <point x="813.6" y="52.6"/>
      <point x="884.4" y="167.2" type="curve"/>
      <point x="906.6" y="64.0"/>
      <point x="994.4" y="-3.2"/>
      <point x="1104.2" y="-3.2" type="curve"/>
      <point x="1129.2" y="127.2" type="line"/>
      <point x="1058.0" y="127.2"/>
      <point x="1012.8" y="186.6"/>
      <point x="1012.8" y="276.6" type="curve" smooth="yes"/>
      <point x="1012.8" y="973.2" type="line"/>
      <point x="936.0" y="1024.2"/>
      <point x="797.4" y="1054.4"/>
      <point x="664.2" y="1054.4" type="curve" smooth="yes"/>
      <point x="317.2" y="1054.4"/>
      <point x="89.2" y="810.6"/>
      <point x="89.2" y="440.6" type="curve" smooth="yes"/>
      <point x="89.2" y="161.6"/>
      <point x="253.0" y="-22.0"/>
    </contour>
    <contour>
      <point x="526.6" y="104.4" type="curve" smooth="yes"/>
      <point x="355.6" y="104.4"/>
      <point x="243.6" y="242.4"/>
      <point x="243.6" y="450.8" type="curve" smooth="yes"/>
      <point x="243.6" y="735.8"/>
      <point x="410.2" y="924.4"/>
      <point x="663.2" y="924.4" type="curve" smooth="yes"/>
      <point x="742.8" y="924.4"/>
      <point x="822.2" y="910.4"/>
      <point x="864.4" y="889.6" type="curve"/>
      <point x="864.4" y="459.8" type="line" smooth="yes"/>
      <point x="864.4" y="258.0"/>
      <point x="730.2" y="104.4"/>
    </contour>
  </outline>
</glyph>
<glyph name="b" format="1">
  <advance width="1187.6"/>
  <unicode hex="0062"/>
  <outline>
    <contour>
      <point x="594.8" y="-22.0" type="curve" smooth="yes"/>
      <point x="912.0" y="-22.0"/>
      <point x="1098.8" y="218.4"/>
      <point x="1098.8" y="548.4" type="curve" smooth="yes"/>
      <point x="1098.8" y="871.4"/>
      <point x="902.0" y="1050.8"/>
      <point x="689.6" y="1050.8" type="curve" smooth="yes"/>
      <point x="563.6" y="1050.8"/>
      <point x="425.4" y="991.4"/>
      <point x="298.4" y="852.4" type="curve"/>
      <point x="298.4" y="1520.0" type="line"/>
      <point x="149.2" y="1489.8" type="line"/>
      <point x="149.2" y="71.4" type="line"/>
      <point x="149.0" y="71.4"/>
      <point x="366.6" y="-22.0"/>
    </contour>
    <contour>
      <point x="601.8" y="104.4" type="curve" smooth="yes"/>
      <point x="448.8" y="104.4"/>
      <point x="298.4" y="146.0"/>
      <point x="298.4" y="146.0" type="curve"/>
      <point x="298.4" y="701.8" type="line"/>
      <point x="420.4" y="849.2"/>
      <point x="559.0" y="920.8"/>
      <point x="677.8" y="920.8" type="curve" smooth="yes"/>
      <point x="825.4" y="920.8"/>
      <point x="944.6" y="805.8"/>
      <point x="944.6" y="555.2" type="curve" smooth="yes"/>
      <point x="944.6" y="320.0"/>
      <point x="845.8" y="104.4"/>
    </contour>
  </outline>
</glyph>
<glyph name="c" format="1">
  <advance width="1069.2"/>
  <unicode hex="0063"/>
  <outline>
    <contour>
      <point x="644.6" y="-23.2" type="curve" smooth="yes"/>
      <point x="775.2" y="-23.2"/>
      <point x="912.0" y="23.0"/>
      <point x="1020.8" y="113.6" type="curve"/>
      <point x="968.0" y="227.6" type="line"/>
      <point x="888.4" y="150.2"/>
      <point x="772.4" y="108.0"/>
      <point x="661.4" y="108.0" type="curve" smooth="yes"/>
      <point x="461.0" y="108.0"/>
      <point x="254.6" y="221.6"/>
      <point x="254.6" y="509.6" type="curve" smooth="yes"/>
      <point x="254.6" y="784.8"/>
      <point x="463.6" y="924.2"/>
      <point x="667.2" y="924.2" type="curve" smooth="yes"/>
      <point x="765.0" y="924.2"/>
      <point x="862.8" y="887.6"/>
      <point x="933.0" y="813.6" type="curve"/>
      <point x="990.8" y="922.8" type="line"/>
      <point x="899.6" y="1018.6"/>
      <point x="773.6" y="1056.8"/>
      <point x="651.6" y="1056.8" type="curve" smooth="yes"/>
      <point x="381.0" y="1056.8"/>
      <point x="100.4" y="863.8"/>
      <point x="100.4" y="503.8" type="curve" smooth="yes"/>
      <point x="100.4" y="140.6"/>
      <point x="380.6" y="-23.2"/>
    </contour>
  </outline>
</glyph>
<glyph name="d" format="1">
  <advance width="1207.6"/>
  <unicode hex="0064"/>
  <outline>
    <contour>
      <point x="556.4" y="-22.0" type="curve" smooth="yes"/>
      <point x="719.2" y="-22.0"/>
      <point x="858.2" y="53.4"/>
      <point x="919.6" y="183.4" type="curve"/>
      <point x="922.4" y="113.0"/>
      <point x="960.0" y="30.6"/>
      <point x="998.8" y="-12.8" type="curve"/>
      <point x="1146.8" y="6.2" type="line"/>
      <point x="1102.2" y="72.0"/>
      <point x="1056.4" y="146.2"/>
      <point x="1056.4" y="390.2" type="curve" smooth="yes"/>
      <point x="1056.4" y="1522.4" type="line"/>
      <point x="907.2" y="1501.0" type="line"/>
      <point x="907.2" y="914.6" type="line"/>
      <point x="789.4" y="1016.8"/>
      <point x="686.6" y="1054.4"/>
      <point x="548.6" y="1054.4" type="curve" smooth="yes"/>
      <point x="241.0" y="1054.4"/>
      <point x="88.8" y="811.0"/>
      <point x="88.8" y="504.0" type="curve" smooth="yes"/>
      <point x="88.8" y="186.8"/>
      <point x="275.2" y="-22.0"/>
    </contour>
    <contour>
      <point x="573.8" y="104.4" type="curve" smooth="yes"/>
      <point x="379.4" y="104.4"/>
      <point x="243.0" y="268.6"/>
      <point x="243.0" y="510.0" type="curve" smooth="yes"/>
      <point x="243.0" y="740.6"/>
      <point x="338.0" y="924.4"/>
      <point x="573.8" y="924.4" type="curve" smooth="yes"/>
      <point x="695.8" y="924.4"/>
      <point x="828.0" y="857.2"/>
      <point x="908.4" y="750.0" type="curve"/>
      <point x="908.4" y="537.2" type="line" smooth="yes"/>
      <point x="908.4" y="292.6"/>
      <point x="826.0" y="104.4"/>
    </contour>
  </outline>
</glyph>
<glyph name="e" format="1">
  <advance width="1051.2"/>
  <unicode hex="0065"/>
  <outline>
    <contour>
      <point x="612.0" y="-22.0" type="curve" smooth="yes"/>
      <point x="773.6" y="-22.0"/>
      <point x="920.8" y="43.0"/>
      <point x="1018.2" y="146.8" type="curve"/>
      <point x="936.2" y="240.0" type="line"/>
      <point x="873.4" y="165.8"/>
      <point x="753.8" y="104.4"/>
      <point x="611.2" y="104.4" type="curve" smooth="yes"/>
      <point x="460.4" y="104.4"/>
      <point x="308.8" y="214.6"/>
      <point x="268.8" y="375.8" type="curve"/>
      <point x="653.6" y="440.2"/>
      <point x="952.0" y="506.8"/>
      <point x="952.0" y="755.4" type="curve" smooth="yes"/>
      <point x="952.0" y="921.4"/>
      <point x="817.6" y="1054.4"/>
      <point x="604.4" y="1054.4" type="curve" smooth="yes"/>
      <point x="272.8" y="1054.4"/>
      <point x="88.4" y="798.2"/>
      <point x="88.4" y="519.4" type="curve" smooth="yes"/>
      <point x="88.4" y="187.4"/>
      <point x="314.0" y="-22.0"/>
    </contour>
    <contour>
      <point x="259.2" y="484.4" type="curve"/>
      <point x="256.8" y="503.6"/>
      <point x="255.6" y="524.6"/>
      <point x="255.6" y="541.4" type="curve" smooth="yes"/>
      <point x="254.6" y="801.4"/>
      <point x="437.0" y="922.2"/>
      <point x="604.4" y="922.2" type="curve" smooth="yes"/>
      <point x="732.4" y="922.2"/>
      <point x="803.8" y="857.8"/>
      <point x="803.8" y="761.6" type="curve" smooth="yes"/>
      <point x="803.8" y="591.2"/>
      <point x="573.4" y="535.6"/>
    </contour>
  </outline>
</glyph>
<glyph name="f" format="1">
  <advance width="677.8"/>
  <unicode hex="0066"/>
  <outline>
    <contour>
      <point x="82.4" y="-386.0" type="line"/>
      <point x="321.2" y="-386.0"/>
      <point x="393.4" y="-282.6"/>
      <point x="393.4" y="-11.0" type="curve" smooth="yes"/>
      <point x="393.4" y="934.0" type="line"/>
      <point x="648.6" y="934.0" type="line"/>
      <point x="648.6" y="1032.0" type="line"/>
      <point x="393.4" y="1032.0" type="line"/>
      <point x="393.4" y="1215.2" type="line" smooth="yes"/>
      <point x="393.4" y="1366.4"/>
      <point x="439.4" y="1434.0"/>
      <point x="559.0" y="1434.0" type="curve" smooth="yes"/>
      <point x="596.8" y="1434.0"/>
      <point x="636.6" y="1424.8"/>
      <point x="674.6" y="1415.8" type="curve"/>
      <point x="698.6" y="1511.4" type="line"/>
      <point x="632.4" y="1533.6"/>
      <point x="576.0" y="1544.4"/>
      <point x="522.8" y="1544.4" type="curve" smooth="yes"/>
      <point x="317.2" y="1544.4"/>
      <point x="245.2" y="1436.4"/>
      <point x="245.2" y="1180.6" type="curve" smooth="yes"/>
      <point x="245.2" y="1032.0" type="line"/>
      <point x="42.0" y="1032.0" type="line"/>
      <point x="42.0" y="934.0" type="line"/>
      <point x="245.2" y="934.0" type="line"/>
      <point x="245.2" y="-37.0" type="line" smooth="yes"/>
      <point x="245.2" y="-201.8"/>
      <point x="213.0" y="-280.2"/>
      <point x="61.4" y="-280.2" type="curve"/>
    </contour>
  </outline>
</glyph>
<glyph name="g" format="1">
  <advance width="1123.4"/>
  <unicode hex="0067"/>
  <outline>
    <contour>
      <point x="526.8" y="-484.2" type="curve" smooth="yes"/>
      <point x="818.2" y="-484.2"/>
      <point x="1011.8" y="-301.4"/>
      <point x="1011.8" y="-26.2" type="curve" smooth="yes"/>
      <point x="1011.8" y="973.2" type="line"/>
      <point x="935.0" y="1024.2"/>
      <point x="796.4" y="1054.4"/>
      <point x="663.2" y="1054.4" type="curve" smooth="yes"/>
      <point x="316.2" y="1054.4"/>
      <point x="88.4" y="810.8"/>
      <point x="88.4" y="440.8" type="curve" smooth="yes"/>
      <point x="88.4" y="161.8"/>
      <point x="252.0" y="-22.0"/>
      <point x="499.4" y="-22.0" type="curve" smooth="yes"/>
      <point x="648.6" y="-22.0"/>
      <point x="790.2" y="42.2"/>
      <point x="866.4" y="141.6" type="curve"/>
      <point x="866.4" y="-49.8" type="line" smooth="yes"/>
      <point x="866.4" y="-238.0"/>
      <point x="727.6" y="-362.8"/>
      <point x="518.8" y="-362.8" type="curve" smooth="yes"/>
      <point x="429.8" y="-362.8"/>
      <point x="305.8" y="-331.2"/>
      <point x="211.6" y="-284.0" type="curve"/>
      <point x="198.2" y="-427.6" type="line"/>
      <point x="299.0" y="-461.8"/>
      <point x="429.8" y="-484.2"/>
    </contour>
    <contour>
      <point x="525.6" y="104.4" type="curve" smooth="yes"/>
      <point x="354.6" y="104.4"/>
      <point x="242.6" y="242.4"/>
      <point x="242.6" y="450.8" type="curve" smooth="yes"/>
      <point x="242.6" y="735.8"/>
      <point x="409.2" y="924.4"/>
      <point x="662.2" y="924.4" type="curve" smooth="yes"/>
      <point x="741.8" y="924.4"/>
      <point x="821.2" y="909.8"/>
      <point x="863.4" y="889.0" type="curve"/>
      <point x="863.4" y="459.8" type="line" smooth="yes"/>
      <point x="863.4" y="258.0"/>
      <point x="729.2" y="104.4"/>
    </contour>
  </outline>
</glyph>
<glyph name="h" format="1">
  <advance width="1203.2"/>
  <unicode hex="0068"/>
  <outline>
    <contour>
      <point x="1110.2" y="-15.2" type="curve"/>
      <point x="1124.4" y="112.0" type="line"/>
      <point x="1000.2" y="86.8"/>
      <point x="1010.4" y="161.4"/>
      <point x="1011.6" y="320.2" type="curve" smooth="yes"/>
      <point x="1014.0" y="563.6" type="line" smooth="yes"/>
      <point x="1017.6" y="915.8"/>
      <point x="909.4" y="1054.4"/>
      <point x="679.4" y="1054.4" type="curve" smooth="yes"/>
      <point x="517.2" y="1054.4"/>
      <point x="359.8" y="980.6"/>
      <point x="295.4" y="869.2" type="curve"/>
      <point x="295.4" y="1522.0" type="line"/>
      <point x="148.4" y="1504.4" type="line"/>
      <point x="148.4" y="0.0" type="line"/>
      <point x="295.4" y="0.0" type="line"/>
      <point x="295.4" y="524.8" type="line" smooth="yes"/>
      <point x="295.4" y="816.8"/>
      <point x="500.4" y="927.6"/>
      <point x="647.0" y="927.6" type="curve" smooth="yes"/>
      <point x="803.4" y="927.6"/>
      <point x="864.4" y="824.4"/>
      <point x="864.4" y="564.6" type="curve"/>
      <point x="862.0" y="295.8" type="line" smooth="yes"/>
      <point x="859.6" y="52.4"/>
      <point x="901.6" y="-43.2"/>
    </contour>
  </outline>
</glyph>
<glyph name="i" format="1">
  <advance width="575.4"/>
  <unicode hex="0069"/>
  <outline>
    <contour>
      <point x="606.2" y="23.6" type="curve"/>
      <point x="584.8" y="129.6" type="line"/>
      <point x="449.8" y="80.6"/>
      <point x="314.6" y="56.2"/>
      <point x="314.6" y="252.6" type="curve" smooth="yes"/>
      <point x="314.6" y="1032.0" type="line"/>
      <point x="166.6" y="1032.0" type="line"/>
      <point x="166.6" y="259.0" type="line" smooth="yes"/>
      <point x="166.6" y="-18.4"/>
      <point x="373.8" y="-69.8"/>
    </contour>
    <contour>
      <point x="242.2" y="1258.8" type="curve" smooth="yes"/>
      <point x="287.2" y="1258.8"/>
      <point x="338.0" y="1285.8"/>
      <point x="338.0" y="1346.8" type="curve" smooth="yes"/>
      <point x="338.0" y="1407.8"/>
      <point x="288.4" y="1435.6"/>
      <point x="243.0" y="1435.6" type="curve" smooth="yes"/>
      <point x="198.2" y="1435.6"/>
      <point x="147.2" y="1408.6"/>
      <point x="147.2" y="1347.8" type="curve" smooth="yes"/>
      <point x="147.2" y="1287.0"/>
      <point x="197.0" y="1258.8"/>
    </contour>
  </outline>
</glyph>
<glyph name="j" format="1">
  <advance width="507.8"/>
  <unicode hex="006A"/>
  <outline>
    <contour>
      <point x="-16.2" y="-456.0" type="curve" smooth="yes"/>
      <point x="184.2" y="-456.0"/>
      <point x="344.0" y="-316.2"/>
      <point x="344.0" y="51.6" type="curve" smooth="yes"/>
      <point x="344.0" y="1032.0" type="line"/>
      <point x="196.0" y="1032.0" type="line"/>
      <point x="196.0" y="45.8" type="line" smooth="yes"/>
      <point x="196.0" y="-253.2"/>
      <point x="93.0" y="-339.6"/>
      <point x="-34.2" y="-339.6" type="curve" smooth="yes"/>
      <point x="-83.6" y="-339.6"/>
      <point x="-130.2" y="-328.4"/>
      <point x="-171.4" y="-312.2" type="curve"/>
      <point x="-187.6" y="-427.0" type="line"/>
      <point x="-129.0" y="-445.6"/>
      <point x="-71.2" y="-456.0"/>
    </contour>
    <contour>
      <point x="273.8" y="1260.2" type="curve" smooth="yes"/>
      <point x="318.6" y="1260.2"/>
      <point x="369.4" y="1287.0"/>
      <point x="369.4" y="1348.2" type="curve" smooth="yes"/>
      <point x="369.4" y="1408.8"/>
      <point x="319.8" y="1436.6"/>
      <point x="274.6" y="1436.6" type="curve" smooth="yes"/>
      <point x="229.6" y="1436.6"/>
      <point x="178.8" y="1410.0"/>
      <point x="178.8" y="1349.2" type="curve" smooth="yes"/>
      <point x="178.8" y="1288.0"/>
      <point x="228.4" y="1260.2"/>
    </contour>
  </outline>
</glyph>
<glyph name="k" format="1">
  <advance width="1083.8"/>
  <unicode hex="006B"/>
  <outline>
    <contour>
      <point x="1056.0" y="-28.4" type="curve"/>
      <point x="1139.8" y="81.6" type="line"/>
      <point x="1041.2" y="79.8"/>
      <point x="946.6" y="154.0"/>
      <point x="880.4" y="266.4" type="curve" smooth="yes"/>
      <point x="678.4" y="598.6" type="line"/>
      <point x="957.8" y="983.4" type="line"/>
      <point x="825.4" y="1033.8" type="line"/>
      <point x="296.8" y="275.0" type="line"/>
      <point x="296.8" y="1524.6" type="line"/>
      <point x="148.4" y="1492.6" type="line"/>
      <point x="148.4" y="54.4" type="line" smooth="yes"/>
      <point x="148.4" y="-23.0"/>
      <point x="228.4" y="-30.4"/>
      <point x="277.0" y="28.2" type="curve"/>
      <point x="598.0" y="488.2" type="line"/>
      <point x="759.2" y="202.6" type="line" smooth="yes"/>
      <point x="833.4" y="67.4"/>
      <point x="951.4" y="-5.6"/>
    </contour>
  </outline>
</glyph>
<glyph name="m" format="1">
  <advance width="1935.6"/>
  <unicode hex="006D"/>
  <outline>
    <contour>
      <point x="1894.0" y="-22.8" type="curve"/>
      <point x="1908.4" y="104.4" type="line"/>
      <point x="1772.2" y="104.4"/>
      <point x="1748.8" y="177.8"/>
      <point x="1750.0" y="336.6" type="curve" smooth="yes"/>
      <point x="1750.0" y="563.6" type="line" smooth="yes"/>
      <point x="1753.6" y="915.8"/>
      <point x="1626.0" y="1054.4"/>
      <point x="1396.0" y="1054.4" type="curve" smooth="yes"/>
      <point x="1244.8" y="1054.4"/>
      <point x="1056.8" y="976.2"/>
      <point x="1017.8" y="802.4" type="curve"/>
      <point x="975.4" y="980.0"/>
      <point x="860.6" y="1054.4"/>
      <point x="689.8" y="1054.4" type="curve" smooth="yes"/>
      <point x="515.6" y="1054.4"/>
      <point x="381.8" y="981.4"/>
      <point x="301.4" y="846.6" type="curve"/>
      <point x="292.0" y="916.0"/>
      <point x="229.2" y="996.0"/>
      <point x="180.8" y="1032.6" type="curve"/>
      <point x="58.4" y="952.0" type="line"/>
      <point x="111.0" y="910.8"/>
      <point x="176.2" y="835.8"/>
      <point x="176.2" y="716.8" type="curve" smooth="yes"/>
      <point x="176.2" y="0.0" type="line"/>
      <point x="323.2" y="0.0" type="line"/>
      <point x="323.2" y="564.0" type="line"/>
      <point x="341.2" y="819.6"/>
      <point x="521.8" y="927.6"/>
      <point x="668.4" y="927.6" type="curve" smooth="yes"/>
      <point x="829.2" y="927.6"/>
      <point x="883.4" y="820.4"/>
      <point x="883.4" y="564.6" type="curve" smooth="yes"/>
      <point x="883.4" y="0.0" type="line"/>
      <point x="1033.0" y="0.0" type="line"/>
      <point x="1033.0" y="524.0" type="line"/>
      <point x="1033.0" y="810.0"/>
      <point x="1227.2" y="927.6"/>
      <point x="1386.6" y="927.6" type="curve" smooth="yes"/>
      <point x="1543.4" y="927.6"/>
      <point x="1600.4" y="824.4"/>
      <point x="1600.4" y="564.6" type="curve" smooth="yes"/>
      <point x="1600.4" y="312.2" type="line" smooth="yes"/>
      <point x="1598.0" y="68.8"/>
      <point x="1685.6" y="-26.8"/>
    </contour>
  </outline>
</glyph>
<glyph name="n" format="1">
  <advance width="1261.0"/>
  <unicode hex="006E"/>
  <outline>
    <contour>
      <point x="1232.6" y="96.0" type="line"/>
      <point x="1230.8" y="96.4"/>
      <point x="1228.4" y="96.6"/>
      <point x="1226.0" y="96.6" type="curve" smooth="yes"/>
      <point x="1117.4" y="96.6"/>
      <point x="1069.0" y="134.0"/>
      <point x="1069.0" y="315.0" type="curve" smooth="yes"/>
      <point x="1069.0" y="586.4" type="line" smooth="yes"/>
      <point x="1069.0" y="938.6"/>
      <point x="925.0" y="1054.4"/>
      <point x="695.0" y="1054.4" type="curve" smooth="yes"/>
      <point x="524.8" y="1054.4"/>
      <point x="383.8" y="969.2"/>
      <point x="327.0" y="845.0" type="curve"/>
      <point x="318.4" y="916.6"/>
      <point x="253.6" y="997.2"/>
      <point x="204.0" y="1032.6" type="curve"/>
      <point x="84.0" y="952.0" type="line"/>
      <point x="129.4" y="919.2"/>
      <point x="201.8" y="835.8"/>
      <point x="201.8" y="716.8" type="curve" smooth="yes"/>
      <point x="201.8" y="0.0" type="line"/>
      <point x="348.8" y="0.0" type="line"/>
      <point x="348.8" y="564.0" type="line"/>
      <point x="366.8" y="819.6"/>
      <point x="529.0" y="927.6"/>
      <point x="679.6" y="927.6" type="curve" smooth="yes"/>
      <point x="840.4" y="927.6"/>
      <point x="920.6" y="841.2"/>
      <point x="920.6" y="581.4" type="curve" smooth="yes"/>
      <point x="920.6" y="349.2" type="line" smooth="yes"/>
      <point x="920.6" y="111.4"/>
      <point x="973.0" y="-20.6"/>
      <point x="1204.0" y="-20.6" type="curve" smooth="yes"/>
      <point x="1209.2" y="-20.6"/>
      <point x="1213.6" y="-21.4"/>
      <point x="1218.2" y="-21.8" type="curve"/>
    </contour>
  </outline>
</glyph>
<glyph name="o" format="1">
  <advance width="1248.6"/>
  <unicode hex="006F"/>
  <outline>
    <contour>
      <point x="630.0" y="104.4" type="curve" smooth="yes"/>
      <point x="404.8" y="104.4"/>
      <point x="254.8" y="267.0"/>
      <point x="254.8" y="511.6" type="curve" smooth="yes"/>
      <point x="254.8" y="759.8"/>
      <point x="405.0" y="924.4"/>
      <point x="629.2" y="924.4" type="curve" smooth="yes"/>
      <point x="848.4" y="924.4"/>
      <point x="993.8" y="761.0"/>
      <point x="993.8" y="514.0" type="curve" smooth="yes"/>
      <point x="993.8" y="268.2"/>
      <point x="848.2" y="104.4"/>
    </contour>
    <contour>
      <point x="630.4" y="-22.0" type="curve" smooth="yes"/>
      <point x="940.8" y="-22.0"/>
      <point x="1148.2" y="193.2"/>
      <point x="1148.2" y="516.2" type="curve" smooth="yes"/>
      <point x="1148.2" y="838.8"/>
      <point x="941.2" y="1054.4"/>
      <point x="629.4" y="1054.4" type="curve" smooth="yes"/>
      <point x="312.6" y="1054.4"/>
      <point x="100.4" y="838.0"/>
      <point x="100.4" y="514.0" type="curve" smooth="yes"/>
      <point x="100.4" y="192.2"/>
      <point x="312.4" y="-22.0"/>
    </contour>
  </outline>
</glyph>
<glyph name="p" format="1">
  <advance width="1236.0"/>
  <unicode hex="0070"/>
  <outline>
    <contour>
      <point x="172.2" y="-449.2" type="line"/>
      <point x="319.2" y="-427.6" type="line"/>
      <point x="318.8" y="100.6" type="line"/>
      <point x="394.6" y="22.2"/>
      <point x="537.8" y="-22.0"/>
      <point x="687.0" y="-22.0" type="curve" smooth="yes"/>
      <point x="980.0" y="-22.0"/>
      <point x="1145.2" y="178.8"/>
      <point x="1145.2" y="530.6" type="curve" smooth="yes"/>
      <point x="1145.2" y="860.4"/>
      <point x="982.4" y="1054.4"/>
      <point x="694.0" y="1054.4" type="curve" smooth="yes"/>
      <point x="523.4" y="1054.4"/>
      <point x="372.8" y="975.0"/>
      <point x="298.8" y="843.2" type="curve"/>
      <point x="291.6" y="924.0"/>
      <point x="231.2" y="995.4"/>
      <point x="178.0" y="1032.4" type="curve"/>
      <point x="59.2" y="956.4" type="line"/>
      <point x="112.6" y="900.6"/>
      <point x="172.2" y="814.8"/>
      <point x="172.2" y="739.6" type="curve" smooth="yes"/>
    </contour>
    <contour>
      <point x="665.0" y="104.4" type="curve" smooth="yes"/>
      <point x="527.0" y="104.4"/>
      <point x="392.2" y="162.8"/>
      <point x="318.0" y="265.2" type="curve"/>
      <point x="318.0" y="437.4" type="line" smooth="yes"/>
      <point x="318.0" y="747.0"/>
      <point x="462.0" y="924.4"/>
      <point x="688.4" y="924.4" type="curve" smooth="yes"/>
      <point x="878.2" y="924.4"/>
      <point x="991.0" y="777.8"/>
      <point x="991.0" y="524.6" type="curve" smooth="yes"/>
      <point x="991.0" y="257.4"/>
      <point x="872.4" y="104.4"/>
    </contour>
  </outline>
</glyph>
<glyph name="r" format="1">
  <advance width="768.6"/>
  <unicode hex="0072"/>
  <outline>
    <contour>
      <point x="180.2" y="0.0" type="line"/>
      <point x="327.2" y="0.0" type="line"/>
      <point x="327.2" y="576.6" type="line" smooth="yes"/>
      <point x="325.2" y="842.4"/>
      <point x="465.0" y="930.4"/>
      <point x="600.2" y="930.4" type="curve" smooth="yes"/>
      <point x="695.2" y="930.4"/>
      <point x="739.4" y="909.8"/>
      <point x="751.0" y="904.8" type="curve"/>
      <point x="764.2" y="1035.0" type="line"/>
      <point x="728.0" y="1045.2"/>
      <point x="693.0" y="1055.2"/>
      <point x="609.4" y="1055.2" type="curve" smooth="yes"/>
      <point x="478.6" y="1055.2"/>
      <point x="364.6" y="962.8"/>
      <point x="302.0" y="853.6" type="curve"/>
      <point x="293.2" y="919.2"/>
      <point x="233.4" y="989.2"/>
      <point x="183.6" y="1032.0" type="curve"/>
      <point x="62.4" y="951.6" type="line"/>
      <point x="114.6" y="911.0"/>
      <point x="180.2" y="816.0"/>
      <point x="180.2" y="716.6" type="curve" smooth="yes"/>
    </contour>
  </outline>
</glyph>
<glyph name="s" format="1">
  <advance width="871.2"/>
  <unicode hex="0073"/>
  <outline>
    <contour>
      <point x="448.4" y="-22.0" type="curve" smooth="yes"/>
      <point x="651.0" y="-22.0"/>
      <point x="788.4" y="97.4"/>
      <point x="793.2" y="269.2" type="curve" smooth="yes"/>
      <point x="798.0" y="427.0"/>
      <point x="653.3" y="507.6"/>
      <point x="536.8" y="567.65" type="curve" smooth="yes"/>
      <point x="402.7" y="633.3"/>
      <point x="248.2" y="682.0"/>
      <point x="248.2" y="783.8" type="curve" smooth="yes"/>
      <point x="248.2" y="871.0"/>
      <point x="327.0" y="922.0"/>
      <point x="446.8" y="922.0" type="curve" smooth="yes"/>
      <point x="531.8" y="922.0"/>
      <point x="631.2" y="891.4"/>
      <point x="713.6" y="846.6" type="curve"/>
      <point x="758.0" y="972.6" type="line"/>
      <point x="671.4" y="1017.4"/>
      <point x="570.2" y="1054.4"/>
      <point x="437.4" y="1054.4" type="curve" smooth="yes"/>
      <point x="246.6" y="1054.4"/>
      <point x="103.6" y="960.0"/>
      <point x="100.0" y="781.6" type="curve" smooth="yes"/>
      <point x="96.4" y="618.4"/>
      <point x="245.1" y="544.3"/>
      <point x="363.5" y="484.9" type="curve" smooth="yes"/>
      <point x="491.5" y="422.7"/>
      <point x="645.4" y="367.6"/>
      <point x="645.4" y="257.0" type="curve" smooth="yes"/>
      <point x="645.4" y="144.8"/>
      <point x="544.2" y="105.6"/>
      <point x="434.0" y="105.6" type="curve" smooth="yes"/>
      <point x="331.8" y="105.6"/>
      <point x="214.6" y="143.4"/>
      <point x="143.8" y="203.6" type="curve"/>
      <point x="94.2" y="69.4" type="line"/>
      <point x="168.8" y="30.8"/>
      <point x="290.0" y="-22.0"/>
    </contour>
  </outline>
</glyph>
<glyph name="t" format="1">
  <advance width="805.2"/>
  <unicode hex="0074"/>
  <outline>
    <contour>
      <point x="556.6" y="-6.4" type="curve" smooth="yes"/>
      <point x="609.6" y="-6.4"/>
      <point x="726.2" y="15.8"/>
      <point x="784.4" y="37.4" type="curve"/>
      <point x="766.6" y="147.0" type="line"/>
      <point x="719.4" y="128.4"/>
      <point x="614.6" y="105.6"/>
      <point x="568.6" y="105.6" type="curve" smooth="yes"/>
      <point x="431.8" y="105.6"/>
      <point x="374.6" y="160.4"/>
      <point x="374.6" y="288.0" type="curve" smooth="yes"/>
      <point x="374.6" y="938.8" type="line"/>
      <point x="723.6" y="938.8" type="line"/>
      <point x="723.6" y="1032.0" type="line"/>
      <point x="374.6" y="1032.0" type="line"/>
      <point x="374.6" y="1346.4" type="line"/>
      <point x="233.0" y="1295.8" type="line"/>
      <point x="233.0" y="1032.0" type="line"/>
      <point x="20.8" y="1032.0" type="line"/>
      <point x="20.8" y="938.8" type="line"/>
      <point x="227.0" y="938.8" type="line"/>
      <point x="227.0" y="300.8" type="line" smooth="yes"/>
      <point x="227.0" y="85.2"/>
      <point x="317.8" y="-6.4"/>
    </contour>
  </outline>
</glyph>
<glyph name="u" format="1">
  <advance width="1172.4"/>
  <unicode hex="0075"/>
  <outline>
    <contour>
      <point x="517.2" y="-22.0" type="curve" smooth="yes"/>
      <point x="678.0" y="-22.0"/>
      <point x="792.0" y="38.0"/>
      <point x="871.0" y="165.2" type="curve"/>
      <point x="880.8" y="39.2"/>
      <point x="969.4" y="-38.8"/>
      <point x="1125.4" y="-2.8" type="curve"/>
      <point x="1137.6" y="119.8" type="line"/>
      <point x="1043.0" y="95.8"/>
      <point x="994.6" y="133.2"/>
      <point x="994.6" y="291.4" type="curve" smooth="yes"/>
      <point x="994.6" y="1032.0" type="line"/>
      <point x="847.4" y="1032.0" type="line"/>
      <point x="847.4" y="417.8" type="line" smooth="yes"/>
      <point x="847.4" y="219.0"/>
      <point x="705.2" y="105.2"/>
      <point x="542.2" y="105.2" type="curve" smooth="yes"/>
      <point x="417.0" y="105.2"/>
      <point x="284.0" y="151.8"/>
      <point x="289.4" y="361.8" type="curve" smooth="yes"/>
      <point x="295.6" y="598.6" type="line" smooth="yes"/>
      <point x="304.6" y="952.4"/>
      <point x="232.2" y="1032.0"/>
      <point x="232.2" y="1032.0" type="curve"/>
      <point x="84.0" y="1006.2" type="line"/>
      <point x="84.0" y="1006.2"/>
      <point x="156.4" y="912.4"/>
      <point x="147.4" y="585.6" type="curve" smooth="yes"/>
      <point x="141.0" y="367.2" type="line" smooth="yes"/>
      <point x="132.8" y="70.2"/>
      <point x="331.6" y="-22.0"/>
    </contour>
  </outline>
</glyph>
<glyph name="w" format="1">
  <advance width="1691.2"/>
  <unicode hex="0077"/>
  <outline>
    <contour>
      <point x="386.4" y="0.0" type="line"/>
      <point x="540.2" y="0.0" type="line"/>
      <point x="855.8" y="880.8" type="line"/>
      <point x="1146.6" y="0.0" type="line"/>
      <point x="1298.0" y="0.0" type="line"/>
      <point x="1663.6" y="1032.0" type="line"/>
      <point x="1510.4" y="1032.0" type="line"/>
      <point x="1258.6" y="247.6" type="line"/>
      <point x="1246.6" y="214.8"/>
      <point x="1238.4" y="178.0"/>
      <point x="1228.6" y="161.8" type="curve"/>
      <point x="1219.8" y="187.4"/>
      <point x="1214.0" y="222.0"/>
      <point x="1205.2" y="246.4" type="curve" smooth="yes"/>
      <point x="938.4" y="1052.2" type="line"/>
      <point x="948.261580242" y="1025.57373335"/>
      <point x="779.500372698" y="1023.19673786"/>
      <point x="789.8" y="1053.2" type="curve"/>
      <point x="499.6" y="234.4" type="line"/>
      <point x="487.6" y="207.6"/>
      <point x="479.4" y="172.0"/>
      <point x="473.4" y="158.2" type="curve"/>
      <point x="464.4" y="185.0"/>
      <point x="458.6" y="218.4"/>
      <point x="449.8" y="244.0" type="curve" smooth="yes"/>
      <point x="188.0" y="1032.0" type="line"/>
      <point x="27.6" y="1032.0" type="line"/>
    </contour>
  </outline>
</glyph>
<glyph name="y" format="1">
  <advance width="1162.6"/>
  <unicode hex="0079"/>
  <outline>
    <contour>
      <point x="519.4" y="-484.4" type="curve" smooth="yes"/>
      <point x="819.6" y="-484.4"/>
      <point x="1008.2" y="-287.0"/>
      <point x="1008.0" y="-26.4" type="curve" smooth="yes"/>
      <point x="1007.8" y="291.4" type="line"/>
      <point x="1008.0" y="1032.0" type="line"/>
      <point x="860.8" y="1032.0" type="line"/>
      <point x="860.8" y="417.8" type="line" smooth="yes"/>
      <point x="860.2" y="219.0"/>
      <point x="718.6" y="105.2"/>
      <point x="555.6" y="105.2" type="curve" smooth="yes"/>
      <point x="430.0" y="105.2"/>
      <point x="297.6" y="151.8"/>
      <point x="302.8" y="361.8" type="curve" smooth="yes"/>
      <point x="309.2" y="598.6" type="line" smooth="yes"/>
      <point x="318.0" y="952.4"/>
      <point x="245.6" y="1032.0"/>
      <point x="245.6" y="1032.0" type="curve"/>
      <point x="97.2" y="1006.2" type="line"/>
      <point x="97.2" y="1006.2"/>
      <point x="169.4" y="912.4"/>
      <point x="160.6" y="585.6" type="curve" smooth="yes"/>
      <point x="154.4" y="367.0" type="line" smooth="yes"/>
      <point x="146.0" y="70.0"/>
      <point x="345.0" y="-22.0"/>
      <point x="530.6" y="-22.0" type="curve" smooth="yes"/>
      <point x="676.0" y="-22.0"/>
      <point x="782.2" y="27.0"/>
      <point x="859.6" y="129.8" type="curve"/>
      <point x="860.2" y="-44.0" type="line" smooth="yes"/>
      <point x="860.2" y="-221.8"/>
      <point x="725.0" y="-363.4"/>
      <point x="511.4" y="-363.4" type="curve" smooth="yes"/>
      <point x="423.6" y="-363.4"/>
      <point x="297.4" y="-330.6"/>
      <point x="204.4" y="-284.2" type="curve"/>
      <point x="190.8" y="-427.8" type="line"/>
      <point x="288.8" y="-461.4"/>
      <point x="423.4" y="-484.4"/>
    </contour>
  </outline>
</glyph>
<glyph name="z" format="1">
  <advance width="966.2"/>
  <unicode hex="007A"/>
  <outline>
    <contour>
      <point x="71.2" y="0.0" type="line"/>
      <point x="913.4" y="0.0" type="line"/>
      <point x="913.4" y="123.8" type="line"/>
      <point x="281.0" y="123.8" type="line"/>
      <point x="897.4" y="958.2" type="line"/>
      <point x="897.4" y="1032.0" type="line"/>
      <point x="99.4" y="1032.0" type="line"/>
      <point x="99.4" y="904.2" type="line"/>
      <point x="688.8" y="904.2" type="line"/>
      <point x="71.2" y="75.8" type="line"/>
    </contour>
  </outline>
</glyph>
<glyph name="exclamdown" format="1">
  <advance width="625.0"/>
  <unicode hex="00A1"/>
  <outline>
    <contour>
      <point x="213.2" y="128.0" type="line"/>
      <point x="398.6" y="128.0" type="line"/>
      <point x="338.6" y="1174.6" type="line"/>
      <point x="274.4" y="1174.6" type="line"/>
    </contour>
    <contour>
      <point x="332.0" y="1317.0" type="curve" smooth="yes"/>
      <point x="419.6" y="1317.0"/>
      <point x="417.2" y="1379.4"/>
      <point x="417.2" y="1451.4" type="curve" smooth="yes"/>
      <point x="417.2" y="1535.4"/>
      <point x="348.8" y="1536.4"/>
      <point x="280.4" y="1536.4" type="curve" smooth="yes"/>
      <point x="192.8" y="1536.4"/>
      <point x="195.2" y="1474.0"/>
      <point x="195.2" y="1402.0" type="curve" smooth="yes"/>
      <point x="195.2" y="1318.0"/>
      <point x="263.6" y="1317.0"/>
    </contour>
  </outline>
</glyph>
<glyph name="brokenbar" format="1">
  <advance width="424.0"/>
  <unicode hex="00A6"/>
  <outline>
    <contour>
      <point x="142.4" y="-416.2" type="line"/>
      <point x="293.8" y="-416.2" type="line"/>
      <point x="293.8" y="437.0" type="line"/>
      <point x="142.4" y="437.0" type="line"/>
    </contour>
    <contour>
      <point x="142.4" y="711.0" type="line"/>
      <point x="293.8" y="711.0" type="line"/>
      <point x="293.8" y="1548.8" type="line"/>
      <point x="142.4" y="1548.8" type="line"/>
    </contour>
  </outline>
</glyph>
<glyph name="guillemotleft" format="1">
  <advance width="980.2"/>
  <unicode hex="00AB"/>
  <outline>
    <contour>
      <point x="468.2" y="145.0" type="line"/>
      <point x="619.8" y="145.0" type="line"/>
      <point x="372.6" y="502.2" type="line"/>
      <point x="628.4" y="862.0" type="line"/>
      <point x="474.0" y="862.0" type="line"/>
      <point x="208.6" y="502.2" type="line"/>
    </contour>
    <contour>
      <point x="825.4" y="145.0" type="line"/>
      <point x="976.8" y="145.0" type="line"/>
      <point x="729.8" y="502.2" type="line"/>
      <point x="983.6" y="862.0" type="line"/>
      <point x="830.2" y="862.0" type="line"/>
      <point x="565.6" y="502.2" type="line"/>
    </contour>
  </outline>
</glyph>
<glyph name="logicalnot" format="1">
  <advance width="1236.2"/>
  <unicode hex="00AC"/>
  <outline>
    <contour>
      <point x="1036.2" y="201.8" type="line"/>
      <point x="1181.0" y="201.8" type="line"/>
      <point x="1181.0" y="742.2" type="line"/>
      <point x="169.4" y="742.2" type="line"/>
      <point x="169.4" y="608.2" type="line"/>
      <point x="1036.2" y="608.2" type="line"/>
    </contour>
  </outline>
</glyph>
<glyph name="degree" format="1">
  <advance width="715.6"/>
  <unicode hex="00B0"/>
  <outline>
    <contour>
      <point x="388.4" y="836.6" type="curve" smooth="yes"/>
      <point x="362.2" y="836.6"/>
      <point x="337.2" y="841.6"/>
      <point x="315.2" y="850.4" type="curve" smooth="yes"/>
      <point x="254.4" y="874.6"/>
      <point x="201.0" y="926.6"/>
      <point x="201.0" y="1010.6" type="curve" smooth="yes"/>
      <point x="201.0" y="1034.8"/>
      <point x="206.8" y="1057.8"/>
      <point x="216.6" y="1079.0" type="curve" smooth="yes"/>
      <point x="244.6" y="1136.8"/>
      <point x="304.2" y="1181.4"/>
      <point x="388.4" y="1181.4" type="curve" smooth="yes"/>
      <point x="413.4" y="1181.4"/>
      <point x="436.6" y="1176.6"/>
      <point x="459.8" y="1167.8" type="curve" smooth="yes"/>
      <point x="520.6" y="1144.6"/>
      <point x="575.6" y="1093.6"/>
      <point x="575.6" y="1010.6" type="curve" smooth="yes"/>
      <point x="575.6" y="986.4"/>
      <point x="570.8" y="963.2"/>
      <point x="561.2" y="942.0" type="curve" smooth="yes"/>
      <point x="534.2" y="883.0"/>
      <point x="473.4" y="836.6"/>
    </contour>
    <contour>
      <point x="388.4" y="724.8" type="curve" smooth="yes"/>
      <point x="429.8" y="724.8"/>
      <point x="468.6" y="731.6"/>
      <point x="506.2" y="747.0" type="curve" smooth="yes"/>
      <point x="604.6" y="786.6"/>
      <point x="696.2" y="874.6"/>
      <point x="696.2" y="1009.6" type="curve" smooth="yes"/>
      <point x="696.2" y="1049.2"/>
      <point x="688.4" y="1084.8"/>
      <point x="672.0" y="1119.4" type="curve" smooth="yes"/>
      <point x="626.6" y="1215.2"/>
      <point x="527.4" y="1293.4"/>
      <point x="388.4" y="1293.4" type="curve" smooth="yes"/>
      <point x="346.8" y="1293.4"/>
      <point x="307.4" y="1285.6"/>
      <point x="269.8" y="1271.0" type="curve" smooth="yes"/>
      <point x="171.4" y="1231.4"/>
      <point x="80.4" y="1143.8"/>
      <point x="80.4" y="1009.6" type="curve" smooth="yes"/>
      <point x="80.4" y="970.0"/>
      <point x="88.2" y="934.4"/>
      <point x="104.6" y="899.6" type="curve" smooth="yes"/>
      <point x="150.0" y="804.0"/>
      <point x="250.4" y="724.8"/>
    </contour>
  </outline>
</glyph>
<glyph name="uni00B2" format="1">
  <advance width="1009.0"/>
  <unicode hex="00B2"/>
  <outline>
    <contour>
      <point x="239.8" y="512.0" type="line"/>
      <point x="766.8" y="512.0" type="line"/>
      <point x="766.8" y="626.0" type="line"/>
      <point x="415.6" y="626.0" type="line"/>
      <point x="504.4" y="703.2"/>
      <point x="594.0" y="777.6"/>
      <point x="665.4" y="863.4" type="curve" smooth="yes"/>
      <point x="717.6" y="926.0"/>
      <point x="767.8" y="998.6"/>
      <point x="767.8" y="1100.0" type="curve" smooth="yes"/>
      <point x="767.8" y="1133.8"/>
      <point x="761.2" y="1163.8"/>
      <point x="748.6" y="1190.6" type="curve" smooth="yes"/>
      <point x="711.0" y="1268.8"/>
      <point x="627.8" y="1319.0"/>
      <point x="514.0" y="1319.0" type="curve" smooth="yes"/>
      <point x="380.8" y="1319.0"/>
      <point x="289.2" y="1251.2"/>
      <point x="247.6" y="1154.8" type="curve"/>
      <point x="329.6" y="1079.6" type="line"/>
      <point x="361.4" y="1147.0"/>
      <point x="416.6" y="1206.0"/>
      <point x="508.2" y="1206.0" type="curve" smooth="yes"/>
      <point x="584.4" y="1206.0"/>
      <point x="643.2" y="1170.2"/>
      <point x="643.2" y="1097.8" type="curve" smooth="yes"/>
      <point x="643.2" y="1070.8"/>
      <point x="633.6" y="1040.8"/>
      <point x="613.4" y="1008.0" type="curve" smooth="yes"/>
      <point x="593.2" y="975.2"/>
      <point x="566.2" y="939.6"/>
      <point x="530.4" y="900.0" type="curve" smooth="yes"/>
      <point x="444.6" y="805.4"/>
      <point x="342.0" y="712.8"/>
      <point x="239.8" y="619.2" type="curve"/>
    </contour>
  </outline>
</glyph>
<glyph name="acute" format="1">
  <advance width="514.8"/>
  <unicode hex="00B4"/>
  <outline>
    <contour>
      <point x="148.4" y="993.6" type="line"/>
      <point x="259.8" y="993.6" type="line"/>
      <point x="557.0" y="1302.4" type="line"/>
      <point x="366.4" y="1302.4" type="line"/>
    </contour>
  </outline>
</glyph>
<glyph name="guillemotright" format="1">
  <advance width="980.2"/>
  <unicode hex="00BB"/>
  <outline>
    <contour>
      <point x="139.8" y="145.0" type="line"/>
      <point x="294.2" y="145.0" type="line"/>
      <point x="559.6" y="503.0" type="line"/>
      <point x="299.2" y="862.0" type="line"/>
      <point x="146.8" y="862.0" type="line"/>
      <point x="395.6" y="503.0" type="line"/>
    </contour>
    <contour>
      <point x="524.0" y="145.0" type="line"/>
      <point x="675.4" y="145.0" type="line"/>
      <point x="941.8" y="503.0" type="line"/>
      <point x="681.4" y="862.0" type="line"/>
      <point x="530.8" y="862.0" type="line"/>
      <point x="775.8" y="503.0" type="line"/>
    </contour>
  </outline>
</glyph>
<glyph name="threequarters" format="1">
  <advance width="2081.2"/>
  <unicode hex="00BE"/>
  <outline>
    <contour>
      <point x="-285.8" y="0.0" type="line"/>
      <point x="-140.0" y="0.0" type="line"/>
      <point x="646.6" y="1252.0" type="line"/>
      <point x="677.4" y="1200.6" type="line"/>
      <point x="724.8" y="1239.4"/>
      <point x="783.6" y="1276.0"/>
      <point x="862.8" y="1276.0" type="curve" smooth="yes"/>
      <point x="941.0" y="1276.0"/>
      <point x="999.0" y="1246.0"/>
      <point x="999.0" y="1167.8" type="curve" smooth="yes"/>
      <point x="999.0" y="1071.4"/>
      <point x="906.2" y="1051.0"/>
      <point x="808.8" y="1051.0" type="curve" smooth="yes"/>
      <point x="761.6" y="1051.0" type="line"/>
      <point x="761.6" y="936.0" type="line"/>
      <point x="786.6" y="936.0" type="line" smooth="yes"/>
      <point x="797.4" y="936.0"/>
      <point x="807.2" y="937.2"/>
      <point x="815.6" y="937.2" type="curve" smooth="yes"/>
      <point x="924.8" y="937.2"/>
      <point x="1023.2" y="914.8"/>
      <point x="1023.2" y="807.8" type="curve" smooth="yes"/>
      <point x="1023.2" y="719.0"/>
      <point x="944.8" y="676.6"/>
      <point x="854.0" y="676.6" type="curve" smooth="yes"/>
      <point x="791.4" y="676.6"/>
      <point x="733.6" y="701.6"/>
      <point x="679.6" y="752.0" type="curve"/>
      <point x="621.6" y="659.2" type="line"/>
      <point x="676.6" y="604.2"/>
      <point x="755.8" y="565.6"/>
      <point x="859.0" y="565.6" type="curve" smooth="yes"/>
      <point x="897.6" y="565.6"/>
      <point x="935.2" y="571.4"/>
      <point x="970.0" y="582.0" type="curve" smooth="yes"/>
      <point x="1064.6" y="612.0"/>
      <point x="1147.6" y="683.2"/>
      <point x="1147.6" y="804.8" type="curve" smooth="yes"/>
      <point x="1147.6" y="904.4"/>
      <point x="1095.4" y="964.2"/>
      <point x="1024.0" y="996.0" type="curve"/>
      <point x="1084.0" y="1027.8"/>
      <point x="1127.2" y="1084.8"/>
      <point x="1127.2" y="1170.8" type="curve" smooth="yes"/>
      <point x="1127.2" y="1206.4"/>
      <point x="1119.6" y="1237.2"/>
      <point x="1105.2" y="1264.2" type="curve" smooth="yes"/>
      <point x="1064.6" y="1339.6"/>
      <point x="979.6" y="1390.8"/>
      <point x="864.8" y="1390.8" type="curve" smooth="yes"/>
      <point x="809.8" y="1390.8"/>
      <point x="756.6" y="1377.4"/>
      <point x="712.2" y="1356.2" type="curve"/>
      <point x="731.6" y="1386.0" type="line"/>
      <point x="587.8" y="1386.0" type="line"/>
    </contour>
    <contour>
      <point x="1887.0" y="593.6" type="line"/>
      <point x="2002.8" y="593.6" type="line"/>
      <point x="2002.8" y="775.0" type="line"/>
      <point x="2119.6" y="775.0" type="line"/>
      <point x="2109.8" y="878.2" type="line"/>
      <point x="2004.6" y="878.2" type="line"/>
      <point x="2004.6" y="1362.8" type="line"/>
      <point x="1875.2" y="1362.8" type="line"/>
      <point x="1522.0" y="862.8" type="line"/>
      <point x="1522.0" y="775.0" type="line"/>
      <point x="1887.0" y="775.0" type="line"/>
    </contour>
    <contour>
      <point x="1656.2" y="878.2" type="line"/>
      <point x="1887.0" y="1200.6" type="line"/>
      <point x="1887.0" y="878.2" type="line"/>
    </contour>
  </outline>
</glyph>
<glyph name="AE" format="1">
  <advance width="1719.4"/>
  <unicode hex="00C6"/>
  <outline>
    <contour>
      <point x="4.2" y="0.0" type="line"/>
      <point x="193.4" y="0.0" type="line"/>
      <point x="411.6" y="384.2" type="line"/>
      <point x="1035.0" y="384.2" type="line"/>
      <point x="1065.0" y="0.0" type="line"/>
      <point x="1834.2" y="0.0" type="line"/>
      <point x="1834.2" y="142.8" type="line"/>
      <point x="1212.8" y="142.8" type="line"/>
      <point x="1173.2" y="648.6" type="line"/>
      <point x="1772.6" y="648.6" type="line"/>
      <point x="1772.6" y="791.6" type="line"/>
      <point x="1154.8" y="791.6" type="line"/>
      <point x="1118.0" y="1262.4" type="line"/>
      <point x="1812.0" y="1262.4" type="line"/>
      <point x="1812.0" y="1405.2" type="line"/>
      <point x="806.2" y="1405.2" type="line"/>
    </contour>
    <contour>
      <point x="487.8" y="527.0" type="line"/>
      <point x="910.6" y="1262.4" type="line"/>
      <point x="958.8" y="1262.4" type="line"/>
      <point x="1016.6" y="527.0" type="line"/>
    </contour>
  </outline>
</glyph>
<glyph name="thorn" format="1">
  <advance width="1050.6"/>
  <unicode hex="00FE"/>
  <outline>
    <contour>
      <point x="133.8" y="-362.0" type="line"/>
      <point x="293.2" y="-362.0" type="line"/>
      <point x="293.2" y="180.4" type="line"/>
      <point x="376.2" y="79.2"/>
      <point x="487.2" y="28.0"/>
      <point x="626.2" y="28.0" type="curve" smooth="yes"/>
      <point x="702.4" y="28.0"/>
      <point x="768.0" y="42.2"/>
      <point x="825.0" y="71.2" type="curve" smooth="yes"/>
      <point x="982.2" y="152.4"/>
      <point x="1080.8" y="324.2"/>
      <point x="1080.8" y="558.8" type="curve" smooth="yes"/>
      <point x="1080.8" y="627.4"/>
      <point x="1071.2" y="691.0"/>
      <point x="1052.8" y="752.6" type="curve" smooth="yes"/>
      <point x="998.6" y="934.2"/>
      <point x="861.8" y="1064.6"/>
      <point x="626.2" y="1064.6" type="curve" smooth="yes"/>
      <point x="470.8" y="1064.6"/>
      <point x="366.4" y="998.0"/>
      <point x="295.0" y="901.4" type="curve"/>
      <point x="295.0" y="1454.4" type="line"/>
      <point x="133.8" y="1454.4" type="line"/>
    </contour>
    <contour>
      <point x="603.0" y="155.4" type="curve" smooth="yes"/>
      <point x="552.8" y="155.4"/>
      <point x="508.6" y="165.0"/>
      <point x="469.8" y="183.4" type="curve" smooth="yes"/>
      <point x="357.0" y="238.4"/>
      <point x="293.2" y="360.0"/>
      <point x="293.2" y="527.0" type="curve" smooth="yes"/>
      <point x="293.2" y="756.6"/>
      <point x="378.0" y="935.2"/>
      <point x="608.8" y="935.2" type="curve" smooth="yes"/>
      <point x="825.8" y="935.2"/>
      <point x="910.8" y="769.2"/>
      <point x="910.8" y="553.0" type="curve" smooth="yes"/>
      <point x="910.8" y="335.8"/>
      <point x="821.0" y="155.4"/>
    </contour>
  </outline>
</glyph>
<glyph name="caron" format="1">
  <advance width="592.6"/>
  <unicode hex="02C7"/>
  <outline>
    <contour>
      <point x="255.2" y="991.8" type="line"/>
      <point x="406.0" y="991.8" type="line"/>
      <point x="635.4" y="1303.6" type="line"/>
      <point x="487.0" y="1303.6" type="line"/>
      <point x="324.8" y="1096.2" type="line"/>
      <point x="166.4" y="1303.6" type="line"/>
      <point x="24.6" y="1303.6" type="line"/>
    </contour>
  </outline>
</glyph>
<glyph name="breve" format="1">
  <advance width="533.4"/>
  <unicode hex="02D8"/>
  <outline>
    <contour>
      <point x="301.2" y="1032.6" type="curve" smooth="yes"/>
      <point x="461.4" y="1032.6"/>
      <point x="558.8" y="1111.6"/>
      <point x="571.4" y="1260.2" type="curve"/>
      <point x="488.6" y="1260.2" type="line"/>
      <point x="469.2" y="1179.2"/>
      <point x="392.8" y="1135.8"/>
      <point x="294.4" y="1135.8" type="curve" smooth="yes"/>
      <point x="196.0" y="1135.8"/>
      <point x="125.6" y="1175.2"/>
      <point x="111.0" y="1260.2" type="curve"/>
      <point x="27.0" y="1260.2" type="line"/>
      <point x="39.6" y="1105.8"/>
      <point x="136.0" y="1032.6"/>
    </contour>
  </outline>
</glyph>
<glyph name="dotaccent" format="1">
  <advance width="444.4"/>
  <unicode hex="02D9"/>
  <outline>
    <contour>
      <point x="156.0" y="1056.2" type="line"/>
      <point x="310.2" y="1056.2" type="line"/>
      <point x="310.2" y="1213.6" type="line"/>
      <point x="156.0" y="1213.6" type="line"/>
    </contour>
  </outline>
</glyph>
<glyph name="tilde" format="1">
  <advance width="562.2"/>
  <unicode hex="02DC"/>
  <outline>
    <contour>
      <point x="11.8" y="1019.8" type="curve"/>
      <point x="113.2" y="1019.8" type="line"/>
      <point x="119.8" y="1075.0"/>
      <point x="149.0" y="1101.8"/>
      <point x="201.0" y="1101.8" type="curve" smooth="yes"/>
      <point x="292.6" y="1101.8"/>
      <point x="352.6" y="1036.2"/>
      <point x="445.2" y="1036.2" type="curve" smooth="yes"/>
      <point x="565.0" y="1036.2"/>
      <point x="620.8" y="1134.6"/>
      <point x="633.4" y="1243.6" type="curve"/>
      <point x="529.2" y="1243.6" type="line"/>
      <point x="522.4" y="1194.4"/>
      <point x="496.4" y="1156.8"/>
      <point x="445.2" y="1156.8" type="curve" smooth="yes"/>
      <point x="426.8" y="1156.8"/>
      <point x="407.8" y="1160.8"/>
      <point x="388.4" y="1167.4" type="curve" smooth="yes"/>
      <point x="332.4" y="1187.8"/>
      <point x="277.4" y="1222.4"/>
      <point x="204.0" y="1222.4" type="curve" smooth="yes"/>
      <point x="84.2" y="1222.4"/>
      <point x="21.6" y="1131.8"/>
    </contour>
  </outline>
</glyph>
<glyph name="commaaccentcomb" format="1">
  <advance width="-190.2"/>
  <unicode hex="0326"/>
  <outline>
    <contour>
      <point x="-582.0" y="-529.8" type="line"/>
      <point x="-455.6" y="-529.8" type="line"/>
      <point x="-298.0" y="-83.0" type="line"/>
      <point x="-478.6" y="-83.0" type="line"/>
    </contour>
  </outline>
</glyph>
<glyph name="quotedblright" format="1">
  <advance width="868.2"/>
  <unicode hex="201D"/>
  <outline>
    <contour>
      <point x="176.4" y="867.2" type="line"/>
      <point x="304.8" y="867.2" type="line"/>
      <point x="452.2" y="1291.8" type="line"/>
      <point x="276.8" y="1291.8" type="line"/>
    </contour>
    <contour>
      <point x="491.0" y="867.2" type="line"/>
      <point x="619.2" y="867.2" type="line"/>
      <point x="768.0" y="1291.8" type="line"/>
      <point x="592.2" y="1291.8" type="line"/>
    </contour>
  </outline>
</glyph>
<glyph name="dagger" format="1">
  <advance width="866.6"/>
  <unicode hex="2020"/>
  <outline>
    <contour>
      <point x="405.4" y="95.8" type="line"/>
      <point x="528.8" y="95.8" type="line"/>
      <point x="528.8" y="888.2" type="line"/>
      <point x="874.4" y="888.2" type="line"/>
      <point x="874.4" y="1015.6" type="line"/>
      <point x="542.4" y="1015.6" type="line"/>
      <point x="542.4" y="1387.2" type="line"/>
      <point x="405.4" y="1387.2" type="line"/>
      <point x="405.4" y="1015.6" type="line"/>
      <point x="90.8" y="1015.6" type="line"/>
      <point x="90.8" y="888.2" type="line"/>
      <point x="405.4" y="888.2" type="line"/>
    </contour>
  </outline>
</glyph>
<glyph name="daggerdbl" format="1">
  <advance width="866.6"/>
  <unicode hex="2021"/>
  <outline>
    <contour>
      <point x="394.0" y="95.8" type="line"/>
      <point x="558.8" y="95.8" type="line"/>
      <point x="533.8" y="406.6" type="line"/>
      <point x="865.8" y="406.6" type="line"/>
      <point x="865.8" y="529.2" type="line"/>
      <point x="533.8" y="529.2" type="line"/>
      <point x="533.8" y="935.6" type="line"/>
      <point x="872.6" y="935.6" type="line"/>
      <point x="872.6" y="1062.8" type="line"/>
      <point x="540.6" y="1062.8" type="line"/>
      <point x="561.0" y="1387.2" type="line"/>
      <point x="395.8" y="1387.2" type="line"/>
      <point x="420.8" y="1062.8" type="line"/>
      <point x="88.8" y="1062.8" type="line"/>
      <point x="88.8" y="935.6" type="line"/>
      <point x="415.2" y="935.6" type="line"/>
      <point x="415.2" y="529.2" type="line"/>
      <point x="83.0" y="529.2" type="line"/>
      <point x="83.0" y="406.6" type="line"/>
      <point x="415.2" y="406.6" type="line"/>
    </contour>
  </outline>
</glyph>
<glyph name="ellipsis" format="1">
  <advance width="1373.4"/>
  <unicode hex="2026"/>
  <outline>
    <contour>
      <point x="134.8" y="-9.2" type="line"/>
      <point x="344.2" y="-9.2" type="line"/>
      <point x="344.2" y="193.4" type="line"/>
      <point x="134.8" y="193.4" type="line"/>
    </contour>
    <contour>
      <point x="656.0" y="-9.2" type="line"/>
      <point x="865.4" y="-9.2" type="line"/>
      <point x="865.4" y="193.4" type="line"/>
      <point x="656.0" y="193.4" type="line"/>
    </contour>
    <contour>
      <point x="1177.2" y="-9.2" type="line"/>
      <point x="1386.6" y="-9.2" type="line"/>
      <point x="1386.6" y="193.4" type="line"/>
      <point x="1177.2" y="193.4" type="line"/>
    </contour>
  </outline>
</glyph>
<glyph name="guilsinglleft" format="1">
  <advance width="544.4"/>
  <unicode hex="2039"/>
  <outline>
    <contour>
      <point x="348.6" y="145.0" type="line"/>
      <point x="499.2" y="145.0" type="line"/>
      <point x="253.2" y="502.2" type="line"/>
      <point x="507.0" y="862.0" type="line"/>
      <point x="353.4" y="862.0" type="line"/>
      <point x="89.0" y="502.2" type="line"/>
    </contour>
  </outline>
</glyph>
<glyph name="fraction" format="1">
  <advance width="312.0"/>
  <unicode hex="2044"/>
  <outline>
    <contour>
      <point x="-285.8" y="0.0" type="line"/>
      <point x="-140.0" y="0.0" type="line"/>
      <point x="731.6" y="1386.0" type="line"/>
      <point x="587.8" y="1386.0" type="line"/>
    </contour>
  </outline>
</glyph>
<glyph name="trademark" format="1">
  <advance width="1584.4"/>
  <unicode hex="2122"/>
  <outline>
    <contour>
      <point x="782.2" y="581.6" type="line"/>
      <point x="899.0" y="581.6" type="line"/>
      <point x="899.0" y="1154.8" type="line"/>
      <point x="1149.0" y="581.6" type="line"/>
      <point x="1226.2" y="581.6" type="line"/>
      <point x="1490.8" y="1155.8" type="line"/>
      <point x="1490.8" y="581.6" type="line"/>
      <point x="1608.6" y="581.6" type="line"/>
      <point x="1608.6" y="1319.8" type="line"/>
      <point x="1434.6" y="1319.8" type="line"/>
      <point x="1193.4" y="788.2" type="line"/>
      <point x="965.6" y="1319.8" type="line"/>
      <point x="782.2" y="1319.8" type="line"/>
    </contour>
    <contour>
      <point x="303.4" y="581.6" type="line"/>
      <point x="423.2" y="581.6" type="line"/>
      <point x="423.2" y="1222.4" type="line"/>
      <point x="674.2" y="1222.4" type="line"/>
      <point x="674.2" y="1319.8" type="line"/>
      <point x="59.4" y="1319.8" type="line"/>
      <point x="59.4" y="1222.4" type="line"/>
      <point x="303.4" y="1222.4" type="line"/>
    </contour>
  </outline>
</glyph>
<glyph name="partialdiff" format="1">
  <advance width="989.4"/>
  <unicode hex="2202"/>
  <outline>
    <contour>
      <point x="465.0" y="-20.4" type="curve" smooth="yes"/>
      <point x="527.8" y="-20.4"/>
      <point x="586.6" y="-8.6"/>
      <point x="638.8" y="13.4" type="curve" smooth="yes"/>
      <point x="748.8" y="60.6"/>
      <point x="829.8" y="143.8"/>
      <point x="888.8" y="246.0" type="curve" smooth="yes"/>
      <point x="974.8" y="395.6"/>
      <point x="1026.8" y="592.6"/>
      <point x="1026.8" y="825.2" type="curve" smooth="yes"/>
      <point x="1026.8" y="938.0"/>
      <point x="1016.2" y="1035.6"/>
      <point x="994.0" y="1118.6" type="curve" smooth="yes"/>
      <point x="939.0" y="1328.0"/>
      <point x="813.6" y="1482.4"/>
      <point x="557.8" y="1482.4" type="curve" smooth="yes"/>
      <point x="440.0" y="1482.4"/>
      <point x="332.8" y="1442.8"/>
      <point x="260.4" y="1394.6" type="curve"/>
      <point x="271.2" y="1261.4" type="line"/>
      <point x="338.8" y="1306.8"/>
      <point x="425.4" y="1353.0"/>
      <point x="535.6" y="1353.0" type="curve" smooth="yes"/>
      <point x="586.6" y="1353.0"/>
      <point x="631.2" y="1342.4"/>
      <point x="671.6" y="1321.2" type="curve" smooth="yes"/>
      <point x="803.0" y="1250.8"/>
      <point x="861.8" y="1086.6"/>
      <point x="861.8" y="882.0" type="curve" smooth="yes"/>
      <point x="861.8" y="861.8"/>
      <point x="860.8" y="829.0"/>
      <point x="860.8" y="809.6" type="curve"/>
      <point x="793.2" y="897.4"/>
      <point x="700.8" y="969.8"/>
      <point x="555.8" y="969.8" type="curve" smooth="yes"/>
      <point x="488.4" y="969.8"/>
      <point x="425.4" y="955.6"/>
      <point x="366.6" y="926.6" type="curve" smooth="yes"/>
      <point x="195.8" y="842.4"/>
      <point x="70.4" y="660.0"/>
      <point x="70.4" y="408.2" type="curve" smooth="yes"/>
      <point x="70.4" y="347.4"/>
      <point x="79.2" y="291.4"/>
      <point x="95.6" y="239.4" type="curve" smooth="yes"/>
      <point x="144.8" y="87.0"/>
      <point x="264.2" y="-20.4"/>
    </contour>
    <contour>
      <point x="468.0" y="110.0" type="curve" smooth="yes"/>
      <point x="432.4" y="110.0"/>
      <point x="399.6" y="116.6"/>
      <point x="370.4" y="131.2" type="curve" smooth="yes"/>
      <point x="281.6" y="174.6"/>
      <point x="233.4" y="273.0"/>
      <point x="233.4" y="405.2" type="curve" smooth="yes"/>
      <point x="233.4" y="530.8"/>
      <point x="276.0" y="637.8"/>
      <point x="333.0" y="711.2" type="curve" smooth="yes"/>
      <point x="385.0" y="778.6"/>
      <point x="467.0" y="841.6"/>
      <point x="578.0" y="841.6" type="curve" smooth="yes"/>
      <point x="611.8" y="841.6"/>
      <point x="642.8" y="836.8"/>
      <point x="670.8" y="825.2" type="curve" smooth="yes"/>
      <point x="754.8" y="791.4"/>
      <point x="813.6" y="720.8"/>
      <point x="844.4" y="635.0" type="curve"/>
      <point x="828.0" y="492.2"/>
      <point x="782.8" y="359.0"/>
      <point x="719.0" y="264.4" type="curve" smooth="yes"/>
      <point x="665.8" y="186.2"/>
      <point x="586.8" y="110.0"/>
    </contour>
  </outline>
</glyph>
<glyph name="approxequal" format="1">
  <advance width="1145.4"/>
  <unicode hex="2248"/>
  <outline>
    <contour>
      <point x="240.8" y="221.2" type="line"/>
      <point x="266.0" y="306.2"/>
      <point x="312.2" y="380.4"/>
      <point x="415.4" y="380.4" type="curve" smooth="yes"/>
      <point x="442.4" y="380.4"/>
      <point x="470.6" y="374.8"/>
      <point x="499.4" y="362.2" type="curve" smooth="yes"/>
      <point x="549.8" y="341.0"/>
      <point x="616.2" y="300.6"/>
      <point x="664.6" y="275.4" type="curve" smooth="yes"/>
      <point x="717.8" y="248.4"/>
      <point x="772.6" y="222.2"/>
      <point x="848.8" y="222.2" type="curve" smooth="yes"/>
      <point x="1016.8" y="222.2"/>
      <point x="1096.0" y="331.4"/>
      <point x="1127.8" y="469.2" type="curve"/>
      <point x="1021.6" y="496.2" type="line"/>
      <point x="991.6" y="416.2"/>
      <point x="951.2" y="336.2"/>
      <point x="854.6" y="336.2" type="curve" smooth="yes"/>
      <point x="826.6" y="336.2"/>
      <point x="796.6" y="344.6"/>
      <point x="763.8" y="361.2" type="curve" smooth="yes"/>
      <point x="731.0" y="377.4"/>
      <point x="696.4" y="395.8"/>
      <point x="659.8" y="416.2" type="curve" smooth="yes"/>
      <point x="595.2" y="451.8"/>
      <point x="513.2" y="496.2"/>
      <point x="418.4" y="496.2" type="curve" smooth="yes"/>
      <point x="255.4" y="496.2"/>
      <point x="164.6" y="387.2"/>
      <point x="130.8" y="248.2" type="curve"/>
    </contour>
    <contour>
      <point x="240.0" y="581.2" type="line"/>
      <point x="265.0" y="665.2"/>
      <point x="310.4" y="740.6"/>
      <point x="412.8" y="740.6" type="curve" smooth="yes"/>
      <point x="439.6" y="740.6"/>
      <point x="467.6" y="734.8"/>
      <point x="495.6" y="722.2" type="curve" smooth="yes"/>
      <point x="545.8" y="700.0"/>
      <point x="612.4" y="659.6"/>
      <point x="661.6" y="634.4" type="curve" smooth="yes"/>
      <point x="716.6" y="606.4"/>
      <point x="769.8" y="581.2"/>
      <point x="847.0" y="581.2" type="curve" smooth="yes"/>
      <point x="1014.0" y="581.2"/>
      <point x="1097.0" y="688.2"/>
      <point x="1125.8" y="828.2" type="curve"/>
      <point x="1019.6" y="855.2" type="line"/>
      <point x="990.8" y="772.2"/>
      <point x="950.2" y="695.2"/>
      <point x="852.8" y="695.2" type="curve" smooth="yes"/>
      <point x="826.8" y="695.2"/>
      <point x="798.6" y="701.8"/>
      <point x="767.8" y="714.4" type="curve" smooth="yes"/>
      <point x="663.4" y="756.8"/>
      <point x="558.4" y="854.4"/>
      <point x="416.6" y="854.4" type="curve" smooth="yes"/>
      <point x="251.6" y="854.4"/>
      <point x="160.8" y="749.0"/>
      <point x="129.0" y="607.2" type="curve"/>
    </contour>
  </outline>
</glyph>
<glyph name="lozenge" format="1">
  <advance width="1058.0"/>
  <unicode hex="25CA"/>
  <outline>
    <contour>
      <point x="529.2" y="-38.2" type="line"/>
      <point x="631.6" y="-38.2" type="line"/>
      <point x="1077.6" y="692.6" type="line"/>
      <point x="640.4" y="1424.0" type="line"/>
      <point x="537.2" y="1424.0" type="line"/>
      <point x="95.0" y="691.6" type="line"/>
    </contour>
    <contour>
      <point x="580.4" y="99.8" type="curve"/>
      <point x="469.4" y="300.6"/>
      <point x="352.8" y="495.6"/>
      <point x="238.8" y="693.4" type="curve"/>
      <point x="355.6" y="890.4"/>
      <point x="479.2" y="1080.6"/>
      <point x="590.0" y="1283.2" type="curve"/>
      <point x="700.2" y="1082.4"/>
      <point x="817.8" y="889.4"/>
      <point x="931.8" y="691.6" type="curve"/>
      <point x="815.0" y="493.8"/>
      <point x="692.4" y="301.4"/>
    </contour>
  </outline>
</glyph>
<glyph name="uniFB01" format="1">
  <advance width="1021.6"/>
  <unicode hex="FB01"/>
  <outline>
    <contour>
      <point x="232.0" y="0.0" type="line"/>
      <point x="391.4" y="0.0" type="line"/>
      <point x="391.4" y="887.0" type="line"/>
      <point x="833.4" y="887.0" type="line"/>
      <point x="833.4" y="0.0" type="line"/>
      <point x="992.6" y="0.0" type="line"/>
      <point x="992.6" y="990.2" type="line"/>
      <point x="391.4" y="990.2" type="line"/>
      <point x="392.4" y="1121.4" type="line" smooth="yes"/>
      <point x="392.4" y="1251.8"/>
      <point x="417.4" y="1331.0"/>
      <point x="547.8" y="1331.0" type="curve" smooth="yes"/>
      <point x="583.6" y="1331.0"/>
      <point x="628.8" y="1326.2"/>
      <point x="654.0" y="1316.6" type="curve"/>
      <point x="652.0" y="1440.8" type="line"/>
      <point x="609.6" y="1450.6"/>
      <point x="574.0" y="1461.2"/>
      <point x="520.8" y="1461.2" type="curve" smooth="yes"/>
      <point x="305.6" y="1461.2"/>
      <point x="237.2" y="1310.8"/>
      <point x="234.2" y="1098.4" type="curve" smooth="yes"/>
      <point x="232.0" y="990.2" type="line"/>
      <point x="38.2" y="990.2" type="line"/>
      <point x="38.2" y="887.0" type="line"/>
      <point x="232.0" y="887.0" type="line"/>
    </contour>
    <contour>
      <point x="841.2" y="1261.4" type="line"/>
      <point x="988.8" y="1261.4" type="line"/>
      <point x="988.8" y="1411.0" type="line"/>
      <point x="841.2" y="1411.0" type="line"/>
    </contour>
  </outline>
</glyph>
<glyph name="nine.alt" format="1">
  <advance width="1009.0"/>
  <outline>
    <contour>
      <point x="485.8" y="-18.4" type="curve" smooth="yes"/>
      <point x="575.6" y="-18.4"/>
      <point x="654.6" y="-1.2"/>
      <point x="724.2" y="35.4" type="curve" smooth="yes"/>
      <point x="939.6" y="149.4"/>
      <point x="1044.6" y="404.4"/>
      <point x="1044.6" y="734.4" type="curve" smooth="yes"/>
      <point x="1044.6" y="842.4"/>
      <point x="1034.0" y="939.0"/>
      <point x="1011.8" y="1022.0" type="curve" smooth="yes"/>
      <point x="955.0" y="1240.0"/>
      <point x="818.6" y="1405.2"/>
      <point x="550.4" y="1405.2" type="curve" smooth="yes"/>
      <point x="478.0" y="1405.2"/>
      <point x="411.4" y="1393.6"/>
      <point x="352.6" y="1370.4" type="curve" smooth="yes"/>
      <point x="193.4" y="1307.8"/>
      <point x="74.6" y="1168.6"/>
      <point x="74.6" y="952.4" type="curve" smooth="yes"/>
      <point x="74.6" y="888.6"/>
      <point x="85.2" y="830.0"/>
      <point x="105.4" y="776.8" type="curve" smooth="yes"/>
      <point x="165.2" y="622.2"/>
      <point x="304.4" y="517.2"/>
      <point x="515.8" y="517.2" type="curve" smooth="yes"/>
      <point x="689.4" y="517.2"/>
      <point x="806.2" y="574.2"/>
      <point x="875.8" y="685.0" type="curve"/>
      <point x="875.8" y="661.8" type="line"/>
      <point x="872.8" y="511.2"/>
      <point x="836.2" y="375.2"/>
      <point x="774.4" y="280.6" type="curve" smooth="yes"/>
      <point x="717.6" y="191.8"/>
      <point x="625.6" y="118.8"/>
      <point x="488.6" y="118.8" type="curve" smooth="yes"/>
      <point x="376.8" y="118.8"/>
      <point x="287.0" y="154.2"/>
      <point x="218.6" y="228.6" type="curve"/>
      <point x="166.2" y="119.4" type="line"/>
      <point x="231.8" y="35.4"/>
      <point x="339.2" y="-18.4"/>
    </contour>
    <contour>
      <point x="541.8" y="652.2" type="curve" smooth="yes"/>
      <point x="349.8" y="652.2"/>
      <point x="244.4" y="767.0"/>
      <point x="244.4" y="957.4" type="curve" smooth="yes"/>
      <point x="244.4" y="1001.6"/>
      <point x="251.2" y="1043.0"/>
      <point x="265.6" y="1080.6" type="curve" smooth="yes"/>
      <point x="305.2" y="1187.8"/>
      <point x="398.0" y="1269.0"/>
      <point x="542.6" y="1269.0" type="curve" smooth="yes"/>
      <point x="593.8" y="1269.0"/>
      <point x="639.2" y="1259.4"/>
      <point x="678.8" y="1241.0" type="curve" smooth="yes"/>
      <point x="782.0" y="1191.8"/>
      <point x="864.2" y="1088.4"/>
      <point x="864.2" y="939.8" type="curve" smooth="yes"/>
      <point x="864.2" y="895.4"/>
      <point x="855.2" y="856.0"/>
      <point x="838.0" y="820.2" type="curve" smooth="yes"/>
      <point x="789.6" y="720.8"/>
      <point x="686.6" y="652.2"/>
    </contour>
  </outline>
</glyph>
<glyph name="s.alt" format="1">
  <advance width="848.6"/>
  <outline>
    <contour>
      <point x="519.4" y="-22.0" type="curve" smooth="yes"/>
      <point x="700.0" y="-22.0"/>
      <point x="857.2" y="53.4"/>
      <point x="857.2" y="277.2" type="curve" smooth="yes"/>
      <point x="857.2" y="478.0"/>
      <point x="672.0" y="531.0"/>
      <point x="517.6" y="578.2" type="curve" smooth="yes"/>
      <point x="425.8" y="606.2"/>
      <point x="261.6" y="633.2"/>
      <point x="261.6" y="750.0" type="curve" smooth="yes"/>
      <point x="261.6" y="853.2"/>
      <point x="355.4" y="888.2"/>
      <point x="462.4" y="888.2" type="curve" smooth="yes"/>
      <point x="571.6" y="888.2"/>
      <point x="693.0" y="852.4"/>
      <point x="746.2" y="817.6" type="curve"/>
      <point x="791.6" y="935.4" type="line"/>
      <point x="697.0" y="992.2"/>
      <point x="577.4" y="1022.2"/>
      <point x="463.4" y="1022.2" type="curve" smooth="yes"/>
      <point x="270.4" y="1022.2"/>
      <point x="96.8" y="936.4"/>
      <point x="96.8" y="747.2" type="curve" smooth="yes"/>
      <point x="96.8" y="553.2"/>
      <point x="259.8" y="497.2"/>
      <point x="419.0" y="450.0" type="curve" smooth="yes"/>
      <point x="522.2" y="419.0"/>
      <point x="700.0" y="393.0"/>
      <point x="700.0" y="265.6" type="curve" smooth="yes"/>
      <point x="700.0" y="148.0"/>
      <point x="608.2" y="111.2"/>
      <point x="497.2" y="111.2" type="curve" smooth="yes"/>
      <point x="369.0" y="111.2"/>
      <point x="214.4" y="167.2"/>
      <point x="142.0" y="222.2" type="curve"/>
      <point x="96.8" y="90.0" type="line"/>
      <point x="199.0" y="27.4"/>
      <point x="368.8" y="-22.0"/>
    </contour>
  </outline>
</glyph>
